<svg width="1280" height="952" viewBox="0 0 1280 952" fill="none" xmlns="http://www.w3.org/2000/svg">
<g opacity="0.47" filter="url(#filter0_f_48_192)">
<path d="M1067 227.205C1067 292.062 1048.04 355.826 1011.95 412.359C975.853 468.893 923.841 516.291 860.917 549.992C797.994 583.693 726.278 602.56 652.674 604.779C579.07 606.997 506.058 592.492 440.665 562.659C375.272 532.825 319.702 488.669 279.303 434.441C238.905 380.213 215.039 317.74 210.004 253.035C204.969 188.331 218.933 123.574 250.553 65" stroke="url(#paint0_linear_48_192)" stroke-opacity="0.4" stroke-width="176.528" stroke-linecap="round" stroke-linejoin="round"/>
</g>
<mask id="path-2-inside-1_48_192" fill="white">
<path d="M0 111.758H1271V369.488H0V111.758Z"/>
</mask>
<path d="M0 113.082H1271V110.434H0V113.082ZM1271 368.164H0V370.812H1271V368.164Z" fill="url(#paint1_linear_48_192)" mask="url(#path-2-inside-1_48_192)"/>
<g opacity="0.6">
<line x1="93.1184" y1="-48" x2="93.1184" y2="776.385" stroke="#28282A" stroke-opacity="0.2" stroke-width="0.882639" stroke-dasharray="2.65 2.65"/>
<line x1="199.035" y1="-48" x2="199.035" y2="776.385" stroke="#28282A" stroke-opacity="0.2" stroke-width="0.882639" stroke-dasharray="2.65 2.65"/>
<line x1="1271" y1="431.376" y2="431.376" stroke="#28282A" stroke-opacity="0.2" stroke-width="0.882639" stroke-dasharray="2.65 2.65"/>
<line x1="1271" y1="487.121" y2="487.121" stroke="#28282A" stroke-opacity="0.2" stroke-width="0.882639" stroke-dasharray="2.65 2.65"/>
<line x1="1271" y1="618.22" y2="618.22" stroke="#28282A" stroke-opacity="0.2" stroke-width="0.882639" stroke-dasharray="2.65 2.65"/>
<line x1="1271" y1="649.609" y2="649.609" stroke="#28282A" stroke-opacity="0.2" stroke-width="0.882639" stroke-dasharray="2.65 2.65"/>
<line x1="1271" y1="739.776" y2="739.776" stroke="#28282A" stroke-opacity="0.2" stroke-width="0.882639" stroke-dasharray="2.65 2.65"/>
<line x1="1271" y1="295.45" y2="295.45" stroke="#28282A" stroke-opacity="0.2" stroke-width="0.882639" stroke-dasharray="2.65 2.65"/>
<line x1="1271" y1="45.015" y2="45.015" stroke="#28282A" stroke-opacity="0.2" stroke-width="0.882639" stroke-dasharray="2.65 2.65"/>
<line x1="1271" y1="182.052" y2="182.052" stroke="#28282A" stroke-opacity="0.2" stroke-width="0.882639" stroke-dasharray="2.65 2.65"/>
<line x1="304.952" y1="-48" x2="304.952" y2="776.385" stroke="#28282A" stroke-opacity="0.2" stroke-width="0.882639" stroke-dasharray="2.65 2.65"/>
<line x1="410.868" y1="-48" x2="410.868" y2="776.385" stroke="#28282A" stroke-opacity="0.2" stroke-width="0.882639" stroke-dasharray="2.65 2.65"/>
<line x1="516.785" y1="-48" x2="516.785" y2="776.385" stroke="#28282A" stroke-opacity="0.2" stroke-width="0.882639" stroke-dasharray="2.65 2.65"/>
<line x1="622.702" y1="-48" x2="622.702" y2="776.385" stroke="#28282A" stroke-opacity="0.2" stroke-width="0.882639" stroke-dasharray="2.65 2.65"/>
<line x1="728.618" y1="-48" x2="728.618" y2="776.385" stroke="#28282A" stroke-opacity="0.2" stroke-width="0.882639" stroke-dasharray="2.65 2.65"/>
<line x1="834.535" y1="-48" x2="834.535" y2="776.385" stroke="#28282A" stroke-opacity="0.2" stroke-width="0.882639" stroke-dasharray="2.65 2.65"/>
<line x1="940.452" y1="-48" x2="940.452" y2="776.385" stroke="#28282A" stroke-opacity="0.2" stroke-width="0.882639" stroke-dasharray="2.65 2.65"/>
<line x1="1046.37" y1="-48" x2="1046.37" y2="776.385" stroke="#28282A" stroke-opacity="0.2" stroke-width="0.882639" stroke-dasharray="2.65 2.65"/>
<line x1="1152.29" y1="-48" x2="1152.29" y2="776.385" stroke="#28282A" stroke-opacity="0.2" stroke-width="0.882639" stroke-dasharray="2.65 2.65"/>
<line y1="-0.441319" x2="17.5067" y2="-0.441319" transform="matrix(-0.806677 0.590993 -0.806677 -0.590993 318.633 295.367)" stroke="#C9C9C9" stroke-width="0.882639"/>
<line y1="-0.441319" x2="31.7308" y2="-0.441319" transform="matrix(-0.806677 0.590993 -0.806677 -0.590993 330.99 295.367)" stroke="#C9C9C9" stroke-width="0.882639"/>
<line y1="-0.441319" x2="51.4258" y2="-0.441319" transform="matrix(-0.806677 0.590993 -0.806677 -0.590993 345.994 294.719)" stroke="#C9C9C9" stroke-width="0.882639"/>
<line y1="-0.441319" x2="68.9325" y2="-0.441319" transform="matrix(-0.806677 0.590993 -0.806677 -0.590993 360.117 294.719)" stroke="#C9C9C9" stroke-width="0.882639"/>
<line y1="-0.441319" x2="84.2508" y2="-0.441319" transform="matrix(-0.806677 0.590993 -0.806677 -0.590993 373.356 294.719)" stroke="#C9C9C9" stroke-width="0.882639"/>
<line y1="-0.441319" x2="101.757" y2="-0.441319" transform="matrix(-0.806677 0.590993 -0.806677 -0.590993 386.596 294.719)" stroke="#C9C9C9" stroke-width="0.882639"/>
<line y1="-0.441319" x2="117.076" y2="-0.441319" transform="matrix(-0.806677 0.590993 -0.806677 -0.590993 399.835 294.719)" stroke="#C9C9C9" stroke-width="0.882639"/>
<line y1="-0.441319" x2="130.206" y2="-0.441319" transform="matrix(-0.806677 0.590993 -0.806677 -0.590993 410.427 297.305)" stroke="#C9C9C9" stroke-width="0.882639"/>
<line y1="-0.441319" x2="130.206" y2="-0.441319" transform="matrix(-0.806677 0.590993 -0.806677 -0.590993 409.544 308.297)" stroke="#C9C9C9" stroke-width="0.882639"/>
<line y1="-0.441319" x2="128.017" y2="-0.441319" transform="matrix(-0.806677 0.590993 -0.806677 -0.590993 408.662 318.647)" stroke="#C9C9C9" stroke-width="0.882639"/>
<line y1="-0.441319" x2="128.017" y2="-0.441319" transform="matrix(-0.806677 0.590993 -0.806677 -0.590993 408.662 328.99)" stroke="#C9C9C9" stroke-width="0.882639"/>
<line y1="-0.441319" x2="128.017" y2="-0.441319" transform="matrix(-0.806677 0.590993 -0.806677 -0.590993 408.662 339.341)" stroke="#C9C9C9" stroke-width="0.882639"/>
<line y1="-0.441319" x2="130.206" y2="-0.441319" transform="matrix(-0.806677 0.590993 -0.806677 -0.590993 409.544 348.395)" stroke="#C9C9C9" stroke-width="0.882639"/>
<line y1="-0.441319" x2="123.641" y2="-0.441319" transform="matrix(-0.806677 0.590993 -0.806677 -0.590993 410.427 358.09)" stroke="#C9C9C9" stroke-width="0.882639"/>
<line y1="-0.441319" x2="103.946" y2="-0.441319" transform="matrix(-0.806677 0.590993 -0.806677 -0.590993 407.779 369.73)" stroke="#C9C9C9" stroke-width="0.882639"/>
<line y1="-0.441319" x2="88.6275" y2="-0.441319" transform="matrix(-0.806677 0.590993 -0.806677 -0.590993 409.544 378.783)" stroke="#C9C9C9" stroke-width="0.882639"/>
<line y1="-0.441319" x2="72.215" y2="-0.441319" transform="matrix(-0.806677 0.590993 -0.806677 -0.590993 408.662 389.127)" stroke="#C9C9C9" stroke-width="0.882639"/>
<line y1="-0.441319" x2="54.7083" y2="-0.441319" transform="matrix(-0.806677 0.590993 -0.806677 -0.590993 409.544 398.829)" stroke="#C9C9C9" stroke-width="0.882639"/>
<line y1="-0.441319" x2="39.39" y2="-0.441319" transform="matrix(-0.806677 0.590993 -0.806677 -0.590993 410.427 407.883)" stroke="#C9C9C9" stroke-width="0.882639"/>
<line y1="-0.441319" x2="21.8833" y2="-0.441319" transform="matrix(-0.806677 0.590993 -0.806677 -0.590993 410.427 418.226)" stroke="#C9C9C9" stroke-width="0.882639"/>
<line y1="-0.441319" x2="4.37667" y2="-0.441319" transform="matrix(-0.806677 0.590993 -0.806677 -0.590993 410.427 428.577)" stroke="#C9C9C9" stroke-width="0.882639"/>
<line y1="-0.441319" x2="23.2389" y2="-0.441319" transform="matrix(-0.607698 0.794168 -0.607698 -0.794168 848.216 188.423)" stroke="#C9C9C9" stroke-width="0.882639"/>
<line y1="-0.441319" x2="42.1205" y2="-0.441319" transform="matrix(-0.607698 0.794168 -0.607698 -0.794168 860.573 188.423)" stroke="#C9C9C9" stroke-width="0.882639"/>
<line y1="-0.441319" x2="68.2642" y2="-0.441319" transform="matrix(-0.607698 0.794168 -0.607698 -0.794168 875.578 187.272)" stroke="#C9C9C9" stroke-width="0.882639"/>
<line y1="-0.441319" x2="91.5031" y2="-0.441319" transform="matrix(-0.607698 0.794168 -0.607698 -0.794168 889.7 187.272)" stroke="#C9C9C9" stroke-width="0.882639"/>
<line y1="-0.441319" x2="111.837" y2="-0.441319" transform="matrix(-0.607698 0.794168 -0.607698 -0.794168 902.94 187.272)" stroke="#C9C9C9" stroke-width="0.882639"/>
<line y1="-0.441319" x2="135.076" y2="-0.441319" transform="matrix(-0.607698 0.794168 -0.607698 -0.794168 916.179 187.272)" stroke="#C9C9C9" stroke-width="0.882639"/>
<line y1="-0.441319" x2="155.41" y2="-0.441319" transform="matrix(-0.607698 0.794168 -0.607698 -0.794168 929.419 187.272)" stroke="#C9C9C9" stroke-width="0.882639"/>
<line y1="-0.441319" x2="172.839" y2="-0.441319" transform="matrix(-0.607698 0.794168 -0.607698 -0.794168 940.01 191.885)" stroke="#C9C9C9" stroke-width="0.882639"/>
<line y1="-0.441319" x2="172.839" y2="-0.441319" transform="matrix(-0.607698 0.794168 -0.607698 -0.794168 939.128 211.496)" stroke="#C9C9C9" stroke-width="0.882639"/>
<line y1="-0.441319" x2="169.934" y2="-0.441319" transform="matrix(-0.607698 0.794168 -0.607698 -0.794168 938.245 229.949)" stroke="#C9C9C9" stroke-width="0.882639"/>
<line y1="-0.441319" x2="169.934" y2="-0.441319" transform="matrix(-0.607698 0.794168 -0.607698 -0.794168 938.245 248.401)" stroke="#C9C9C9" stroke-width="0.882639"/>
<line y1="-0.441319" x2="169.934" y2="-0.441319" transform="matrix(-0.607698 0.794168 -0.607698 -0.794168 938.245 266.861)" stroke="#C9C9C9" stroke-width="0.882639"/>
<line y1="-0.441319" x2="172.839" y2="-0.441319" transform="matrix(-0.607698 0.794168 -0.607698 -0.794168 939.128 283.01)" stroke="#C9C9C9" stroke-width="0.882639"/>
<line y1="-0.441319" x2="164.125" y2="-0.441319" transform="matrix(-0.607698 0.794168 -0.607698 -0.794168 940.01 300.311)" stroke="#C9C9C9" stroke-width="0.882639"/>
<line y1="-0.441319" x2="137.981" y2="-0.441319" transform="matrix(-0.607698 0.794168 -0.607698 -0.794168 937.362 321.074)" stroke="#C9C9C9" stroke-width="0.882639"/>
<line y1="-0.441319" x2="117.647" y2="-0.441319" transform="matrix(-0.607698 0.794168 -0.607698 -0.794168 939.128 337.224)" stroke="#C9C9C9" stroke-width="0.882639"/>
<line y1="-0.441319" x2="95.8604" y2="-0.441319" transform="matrix(-0.607698 0.794168 -0.607698 -0.794168 938.245 355.676)" stroke="#C9C9C9" stroke-width="0.882639"/>
<line y1="-0.441319" x2="72.6215" y2="-0.441319" transform="matrix(-0.607698 0.794168 -0.607698 -0.794168 939.128 372.977)" stroke="#C9C9C9" stroke-width="0.882639"/>
<line y1="-0.441319" x2="52.2875" y2="-0.441319" transform="matrix(-0.607698 0.794168 -0.607698 -0.794168 940.01 389.127)" stroke="#C9C9C9" stroke-width="0.882639"/>
<line y1="-0.441319" x2="29.0486" y2="-0.441319" transform="matrix(-0.607698 0.794168 -0.607698 -0.794168 940.01 407.586)" stroke="#C9C9C9" stroke-width="0.882639"/>
<line y1="-0.441319" x2="5.80972" y2="-0.441319" transform="matrix(-0.607698 0.794168 -0.607698 -0.794168 940.01 426.039)" stroke="#C9C9C9" stroke-width="0.882639"/>
</g>
<defs>
<filter id="filter0_f_48_192" x="-43.7883" y="-187.805" width="1363.58" height="1045.59" filterUnits="userSpaceOnUse" color-interpolation-filters="sRGB">
<feFlood flood-opacity="0" result="BackgroundImageFix"/>
<feBlend mode="normal" in="SourceGraphic" in2="BackgroundImageFix" result="shape"/>
<feGaussianBlur stdDeviation="82.2619" result="effect1_foregroundBlur_48_192"/>
</filter>
<linearGradient id="paint0_linear_48_192" x1="299.452" y1="42.9384" x2="1066.11" y2="476.064" gradientUnits="userSpaceOnUse">
<stop stop-color="#3398DB"/>
<stop offset="0.313324" stop-color="#F1C40E"/>
<stop offset="0.780691" stop-color="#F39C12"/>
<stop offset="1" stop-color="#E74D3C"/>
</linearGradient>
<linearGradient id="paint1_linear_48_192" x1="0" y1="240.623" x2="1271" y2="240.623" gradientUnits="userSpaceOnUse">
<stop stop-color="#A8A8A8" stop-opacity="0"/>
<stop offset="0.25" stop-color="#A8A8A8" stop-opacity="0.2"/>
<stop offset="0.85" stop-color="#A8A8A8" stop-opacity="0.2"/>
<stop offset="1" stop-color="#A8A8A8" stop-opacity="0"/>
</linearGradient>
</defs>
</svg>
