<svg width="483" height="420" viewBox="0 0 483 420" fill="none" xmlns="http://www.w3.org/2000/svg">
<ellipse cx="429" cy="182" rx="54" ry="95" fill="#00598A"/>
<path d="M462 182C462 220.66 444.763 252 423.5 252C402.237 252 385 220.66 385 182C385 143.34 402.237 112 423.5 112C444.763 112 462 143.34 462 182ZM398.678 182C398.678 206.925 409.791 227.131 423.5 227.131C437.209 227.131 448.322 206.925 448.322 182C448.322 157.075 437.209 136.869 423.5 136.869C409.791 136.869 398.678 157.075 398.678 182Z" fill="#51A2FF"/>
<path d="M430 182.265C430 188.194 426.068 193 421.218 193C416.369 193 411 189.102 411 183.173C411 177.244 416.369 172 421.218 172C426.068 172 430 176.336 430 182.265Z" fill="#CFA5B6"/>
<path d="M168.212 67.4553L170.865 68.5175L169.812 65.9206L171.692 63.7832L168.821 63.9768L167.33 61.6028L166.604 64.3109L163.803 64.9721L166.23 66.4604L165.989 69.2522L168.212 67.4553Z" fill="#E1FFF4" fill-opacity="0.21"/>
<path d="M100.869 98.0885L104.138 99.4233L102.835 96.1753L105.144 93.5098L101.609 93.7436L99.7665 90.7729L98.881 94.1548L95.4345 94.9731L98.4266 96.8396L98.138 100.328L100.869 98.0885Z" fill="#E1FFF4" fill-opacity="0.51"/>
<path d="M285.016 39.7109L288.285 41.0457L286.981 37.7978L289.291 35.1323L285.756 35.3661L283.913 32.3953L283.028 35.7772L279.581 36.5955L282.573 38.4621L282.285 41.95L285.016 39.7109Z" fill="#E1FFF4" fill-opacity="0.55"/>
<path d="M118.225 239.757L120.878 240.819L119.825 238.222L121.706 236.085L118.835 236.278L117.343 233.904L116.618 236.612L113.817 237.273L116.244 238.762L116.003 241.554L118.225 239.757Z" fill="#E1FFF4" fill-opacity="0.22"/>
<path d="M9.2802 276.893L11.9333 277.955L10.8804 275.358L12.7608 273.221L9.88954 273.414L8.39822 271.04L7.67278 273.749L4.87197 274.41L7.29883 275.898L7.05799 278.69L9.2802 276.893Z" fill="#E1FFF4" fill-opacity="0.24"/>
<path d="M50.8502 211.321L53.5033 212.384L52.4504 209.787L54.3308 207.649L51.4596 207.843L49.9682 205.469L49.2428 208.177L46.442 208.838L48.8688 210.326L48.628 213.118L50.8502 211.321Z" fill="#E1FFF4" fill-opacity="0.34"/>
<path d="M89.3873 324.728L92.4513 325.972L91.2312 322.941L93.3975 320.452L90.084 320.672L88.3583 317.9L87.5262 321.057L84.2949 321.823L87.0987 323.564L86.826 326.82L89.3873 324.728Z" fill="#E1FFF4" fill-opacity="0.47"/>
<path d="M9.00558 171.347L12.2751 172.682L10.9713 169.434L13.2805 166.769L9.74595 167.002L7.9031 164.032L7.01762 167.414L3.57114 168.232L6.5633 170.098L6.27469 173.586L9.00558 171.347Z" fill="#E1FFF4" fill-opacity="0.49"/>
<path d="M89.2607 392.569C115.317 372.069 130.144 389.66 146.667 376.658C163.189 363.655 152.662 343.574 152.662 343.574C152.662 343.574 135.297 328.871 118.775 341.878C102.254 354.885 115.315 372.065 89.2607 392.569Z" fill="#B8E6FE"/>
<mask id="mask0_6_7560" style="mask-type:luminance" maskUnits="userSpaceOnUse" x="89" y="336" width="67" height="57">
<path d="M89.2607 392.569C115.317 372.069 130.144 389.66 146.667 376.658C163.19 363.655 152.662 343.574 152.662 343.574C152.662 343.574 135.297 328.871 118.775 341.878C102.254 354.885 115.315 372.065 89.2607 392.569Z" fill="white"/>
</mask>
<g mask="url(#mask0_6_7560)">
<path d="M89.2598 392.569L95.3128 398.994L91.2715 400.077L89.2598 392.569Z" fill="#B8E6FE"/>
<path d="M89.0096 391.636L95.8159 398.859L95.3128 398.994L89.2598 392.569L89.0096 391.636Z" fill="#B8E6FE"/>
<path d="M88.7595 390.702L96.319 398.725L95.8159 398.859L89.0096 391.636L88.7595 390.702Z" fill="#B8E6FE"/>
<path d="M88.5093 389.769L96.8212 398.59L96.319 398.725L88.7595 390.702L88.5093 389.769Z" fill="#B8E6FE"/>
<path d="M88.2589 388.834L97.3243 398.455L96.8212 398.59L88.5093 389.769L88.2589 388.834Z" fill="#B8E6FE"/>
<path d="M88.0088 387.901L97.8274 398.321L97.3243 398.455L88.2589 388.834L88.0088 387.901Z" fill="#B8E6FE"/>
<path d="M87.7586 386.967L98.3295 398.186L97.8274 398.32L88.0088 387.901L87.7586 386.967Z" fill="#B8E6FE"/>
<path d="M87.5085 386.034L98.8326 398.051L98.3295 398.186L87.7586 386.967L87.5085 386.034Z" fill="#B8E6FE"/>
<path d="M87.2581 385.099L99.3358 397.916L98.8326 398.051L87.5085 386.034L87.2581 385.099Z" fill="#B8E6FE"/>
<path d="M87.0079 384.165L99.8379 397.782L99.3358 397.916L87.2581 385.099L87.0079 384.165Z" fill="#B8E6FE"/>
<path d="M86.7578 383.232L100.341 397.647L99.8379 397.782L87.0079 384.166L86.7578 383.232Z" fill="#B8E6FE"/>
<path d="M86.5074 382.297L100.844 397.512L100.341 397.647L86.7578 383.232L86.5074 382.297Z" fill="#B8E6FE"/>
<path d="M86.2572 381.364L101.346 397.378L100.844 397.512L86.5074 382.297L86.2572 381.364Z" fill="#B8E6FE"/>
<path d="M86.0071 380.43L101.849 397.243L101.346 397.378L86.2572 381.364L86.0071 380.43Z" fill="#B8E6FE"/>
<path d="M85.7569 379.497L102.352 397.108L101.849 397.243L86.0071 380.43L85.7569 379.497Z" fill="#B8E6FE"/>
<path d="M85.5065 378.562L102.855 396.973L102.352 397.108L85.7569 379.497L85.5065 378.562Z" fill="#B8E6FE"/>
<path d="M85.2564 377.629L103.358 396.839L102.855 396.973L85.5065 378.562L85.2564 377.629Z" fill="#B8E6FE"/>
<path d="M85.0062 376.695L103.861 396.704L103.358 396.839L85.2564 377.629L85.0062 376.695Z" fill="#B8E6FE"/>
<path d="M84.7561 375.761L104.363 396.569L103.861 396.704L85.0062 376.695L84.7561 375.761Z" fill="#B8E6FE"/>
<path d="M84.5057 374.827L104.866 396.435L104.363 396.569L84.7561 375.761L84.5057 374.827Z" fill="#B8E6FE"/>
<path d="M84.2555 373.893L105.369 396.3L104.866 396.435L84.5057 374.827L84.2555 373.893Z" fill="#B8E6FE"/>
<path d="M84.0054 372.96L105.871 396.165L105.369 396.3L84.2555 373.893L84.0054 372.96Z" fill="#B8E6FE"/>
<path d="M83.755 372.025L106.374 396.03L105.871 396.165L84.0054 372.96L83.755 372.025Z" fill="#B8E6FE"/>
<path d="M83.5048 371.092L106.878 395.896L106.374 396.03L83.755 372.025L83.5048 371.092Z" fill="#B8E6FE"/>
<path d="M83.4503 370.888L83.713 370.646L107.38 395.761L106.878 395.896L83.5048 371.092L83.4503 370.888Z" fill="#B8E6FE"/>
<path d="M83.713 370.646L84.0505 370.334L107.883 395.626L107.38 395.761L83.713 370.646Z" fill="#B8E6FE"/>
<path d="M84.0505 370.334L84.3873 370.024L108.386 395.491L107.883 395.626L84.0505 370.334Z" fill="#B8E6FE"/>
<path d="M84.3873 370.024L84.7241 369.713L108.888 395.357L108.386 395.491L84.3873 370.024Z" fill="#B8E6FE"/>
<path d="M84.7241 369.713L85.0607 369.402L109.391 395.222L108.888 395.357L84.7241 369.713Z" fill="#B8E6FE"/>
<path d="M85.0606 369.402L85.3974 369.091L109.894 395.087L109.391 395.222L85.0606 369.402Z" fill="#B8E6FE"/>
<path d="M85.3974 369.091L85.734 368.78L110.396 394.953L109.894 395.087L85.3974 369.091Z" fill="#B8E6FE"/>
<path d="M85.734 368.78L86.0708 368.469L110.9 394.818L110.396 394.953L85.734 368.78Z" fill="#B8E6FE"/>
<path d="M86.0708 368.469L86.4073 368.158L111.403 394.683L110.9 394.818L86.0708 368.469Z" fill="#B8E6FE"/>
<path d="M86.4073 368.158L86.7451 367.847L111.905 394.548L111.403 394.683L86.4073 368.158Z" fill="#B8E6FE"/>
<path d="M86.7451 367.847L87.0819 367.537L112.408 394.414L111.905 394.549L86.7451 367.847Z" fill="#B8E6FE"/>
<path d="M87.0819 367.537L87.4184 367.226L112.911 394.279L112.408 394.414L87.0819 367.537Z" fill="#B8E6FE"/>
<path d="M87.4184 367.226L87.7552 366.915L113.414 394.144L112.911 394.279L87.4184 367.226Z" fill="#B8E6FE"/>
<path d="M87.7552 366.915L88.0918 366.604L113.916 394.01L113.414 394.144L87.7552 366.915Z" fill="#B8E6FE"/>
<path d="M88.0918 366.604L88.4286 366.293L114.419 393.875L113.916 394.01L88.0918 366.604Z" fill="#B8E6FE"/>
<path d="M88.4286 366.293L88.7651 365.982L114.922 393.74L114.419 393.875L88.4286 366.293Z" fill="#B8E6FE"/>
<path d="M88.7651 365.982L89.1019 365.671L115.425 393.605L114.922 393.74L88.7651 365.982Z" fill="#B8E6FE"/>
<path d="M89.1019 365.671L89.4397 365.361L115.928 393.471L115.425 393.605L89.1019 365.671Z" fill="#B8E6FE"/>
<path d="M89.4397 365.361L89.7762 365.049L116.431 393.336L115.928 393.471L89.4397 365.361Z" fill="#B8E6FE"/>
<path d="M89.7762 365.049L90.113 364.739L116.933 393.201L116.431 393.336L89.7762 365.049Z" fill="#B8E6FE"/>
<path d="M90.113 364.739L90.4496 364.428L117.436 393.066L116.933 393.201L90.113 364.739Z" fill="#B8E6FE"/>
<path d="M90.4496 364.428L90.7864 364.117L117.938 392.932L117.436 393.066L90.4496 364.428Z" fill="#B8E6FE"/>
<path d="M90.7864 364.117L91.1232 363.807L118.441 392.797L117.938 392.932L90.7864 364.117Z" fill="#B8E6FE"/>
<path d="M91.1231 363.807L91.4597 363.495L118.945 392.662L118.441 392.797L91.1231 363.807Z" fill="#B8E6FE"/>
<path d="M91.4597 363.495L91.7965 363.185L119.448 392.527L118.945 392.662L91.4597 363.495Z" fill="#B8E6FE"/>
<path d="M91.7965 363.185L92.134 362.873L119.95 392.393L119.448 392.527L91.7965 363.185Z" fill="#B8E6FE"/>
<path d="M92.134 362.873L92.4708 362.563L120.453 392.258L119.95 392.393L92.134 362.873Z" fill="#B8E6FE"/>
<path d="M92.4708 362.563L92.8074 362.251L120.956 392.123L120.453 392.258L92.4708 362.563Z" fill="#B8E6FE"/>
<path d="M92.8074 362.251L93.1441 361.941L121.458 391.989L120.956 392.123L92.8074 362.251Z" fill="#B8E6FE"/>
<path d="M93.1441 361.941L93.4809 361.63L121.961 391.854L121.458 391.989L93.1441 361.941Z" fill="#B8E6FE"/>
<path d="M93.4809 361.631L93.8175 361.319L122.464 391.719L121.961 391.854L93.4809 361.631Z" fill="#B8E6FE"/>
<path d="M93.8175 361.319L94.1543 361.009L122.967 391.585L122.464 391.719L93.8175 361.319Z" fill="#B8E6FE"/>
<path d="M94.1543 361.009L94.4908 360.697L123.47 391.45L122.967 391.584L94.1543 361.009Z" fill="#B8E6FE"/>
<path d="M94.4908 360.697L94.8286 360.387L123.973 391.315L123.47 391.45L94.4908 360.697Z" fill="#B8E6FE"/>
<path d="M94.8286 360.387L95.1651 360.075L124.475 391.18L123.973 391.315L94.8286 360.387Z" fill="#B8E6FE"/>
<path d="M95.1651 360.075L95.5019 359.765L124.978 391.046L124.475 391.18L95.1651 360.075Z" fill="#B8E6FE"/>
<path d="M95.5019 359.765L95.8387 359.454L125.481 390.911L124.978 391.046L95.5019 359.765Z" fill="#B8E6FE"/>
<path d="M95.8387 359.454L96.1753 359.143L125.983 390.776L125.481 390.911L95.8387 359.454Z" fill="#B8E6FE"/>
<path d="M96.1753 359.143L96.5121 358.833L126.486 390.641L125.983 390.776L96.1753 359.143Z" fill="#B8E6FE"/>
<path d="M96.5121 358.833L96.8486 358.521L126.989 390.507L126.486 390.641L96.5121 358.833Z" fill="#B8E6FE"/>
<path d="M96.8486 358.521L97.1854 358.211L127.492 390.372L126.989 390.506L96.8486 358.521Z" fill="#B8E6FE"/>
<path d="M97.1854 358.211L97.522 357.899L127.995 390.237L127.492 390.372L97.1854 358.211Z" fill="#B8E6FE"/>
<path d="M97.5219 357.899L97.8597 357.588L128.498 390.102L127.995 390.237L97.5219 357.899Z" fill="#B8E6FE"/>
<path d="M97.8597 357.589L98.1965 357.278L129 389.968L128.498 390.102L97.8597 357.589Z" fill="#B8E6FE"/>
<path d="M98.1965 357.278L98.5331 356.967L129.503 389.833L129 389.968L98.1965 357.278Z" fill="#B8E6FE"/>
<path d="M98.5331 356.967L98.8699 356.656L130.006 389.698L129.503 389.833L98.5331 356.967Z" fill="#B8E6FE"/>
<path d="M98.8699 356.656L99.2064 356.345L130.508 389.564L130.006 389.698L98.8699 356.656Z" fill="#B8E6FE"/>
<path d="M99.2064 356.345L99.5432 356.035L131.011 389.429L130.508 389.564L99.2064 356.345Z" fill="#B8E6FE"/>
<path d="M99.5432 356.034L99.8797 355.723L131.515 389.294L131.011 389.429L99.5432 356.034Z" fill="#B8E6FE"/>
<path d="M99.8798 355.723L100.217 355.413L132.017 389.159L131.515 389.294L99.8798 355.723Z" fill="#B8E6FE"/>
<path d="M100.217 355.413L100.554 355.102L132.52 389.025L132.017 389.16L100.217 355.413Z" fill="#B8E6FE"/>
<path d="M100.554 355.102L100.891 354.791L133.023 388.89L132.52 389.025L100.554 355.102Z" fill="#B8E6FE"/>
<path d="M100.891 354.791L101.228 354.48L133.526 388.755L133.023 388.89L100.891 354.791Z" fill="#B8E6FE"/>
<path d="M101.228 354.48L101.564 354.169L134.028 388.621L133.526 388.755L101.228 354.48Z" fill="#B8E6FE"/>
<path d="M101.564 354.169L101.901 353.858L134.531 388.486L134.028 388.621L101.564 354.169Z" fill="#B8E6FE"/>
<path d="M101.901 353.858L102.238 353.547L135.033 388.351L134.531 388.486L101.901 353.858Z" fill="#B8E6FE"/>
<path d="M102.238 353.547L102.574 353.236L135.537 388.216L135.033 388.351L102.238 353.547Z" fill="#B8E6FE"/>
<path d="M102.574 353.236L102.911 352.926L136.04 388.082L135.537 388.216L102.574 353.236Z" fill="#B8E6FE"/>
<path d="M102.911 352.926L103.248 352.615L136.543 387.947L136.04 388.082L102.911 352.926Z" fill="#B8E6FE"/>
<path d="M103.248 352.615L103.585 352.304L137.045 387.812L136.543 387.947L103.248 352.615Z" fill="#B8E6FE"/>
<path d="M103.585 352.304L103.922 351.993L137.548 387.677L137.045 387.812L103.585 352.304Z" fill="#B8E6FE"/>
<path d="M103.922 351.993L104.259 351.682L138.05 387.543L137.548 387.677L103.922 351.993Z" fill="#B8E6FE"/>
<path d="M104.259 351.682L104.595 351.371L138.553 387.408L138.05 387.543L104.259 351.682Z" fill="#B8E6FE"/>
<path d="M104.595 351.371L104.932 351.06L139.056 387.273L138.553 387.408L104.595 351.371Z" fill="#B8E6FE"/>
<path d="M104.932 351.06L105.269 350.75L139.397 386.966L139.068 387.27L139.056 387.273L104.932 351.06Z" fill="#B8E6FE"/>
<path d="M105.603 350.445L105.266 350.756L139.392 386.974L139.729 386.663L105.603 350.445Z" fill="#B8E6FE"/>
<path d="M105.936 350.141L105.6 350.452L139.726 386.669L140.063 386.358L105.936 350.141Z" fill="#B8E6FE"/>
<path d="M106.276 349.823L105.939 350.134L140.065 386.352L140.402 386.041L106.276 349.823Z" fill="#B8E6FE"/>
<path d="M106.61 349.518L106.274 349.829L140.4 386.047L140.737 385.736L106.61 349.518Z" fill="#B8E6FE"/>
<path d="M106.946 349.208L106.609 349.519L140.735 385.737L141.072 385.426L106.946 349.208Z" fill="#B8E6FE"/>
<path d="M107.285 348.894L106.948 349.205L141.074 385.423L141.411 385.112L107.285 348.894Z" fill="#B8E6FE"/>
<path d="M107.62 348.587L107.283 348.898L141.41 385.116L141.747 384.805L107.62 348.587Z" fill="#B8E6FE"/>
<path d="M107.961 348.269L107.624 348.58L141.75 384.798L142.087 384.487L107.961 348.269Z" fill="#B8E6FE"/>
<path d="M108.294 347.965L107.957 348.276L142.084 384.493L142.421 384.182L108.294 347.965Z" fill="#B8E6FE"/>
<path d="M108.631 347.653L108.294 347.964L142.42 384.182L142.757 383.871L108.631 347.653Z" fill="#B8E6FE"/>
<path d="M108.971 347.337L108.634 347.648L142.76 383.866L143.097 383.555L108.971 347.337Z" fill="#B8E6FE"/>
<path d="M109.304 347.032L108.967 347.343L143.094 383.56L143.431 383.249L109.304 347.032Z" fill="#B8E6FE"/>
<path d="M109.644 346.714L109.307 347.025L143.433 383.243L143.77 382.932L109.644 346.714Z" fill="#B8E6FE"/>
<path d="M109.978 346.411L109.641 346.722L143.768 382.939L144.104 382.628L109.978 346.411Z" fill="#B8E6FE"/>
<path d="M110.315 346.099L109.978 346.41L144.104 382.628L144.441 382.317L110.315 346.099Z" fill="#B8E6FE"/>
<path d="M110.655 345.783L110.318 346.094L144.444 382.311L144.781 382L110.655 345.783Z" fill="#B8E6FE"/>
<path d="M110.989 345.477L110.652 345.788L144.778 382.006L145.115 381.695L110.989 345.477Z" fill="#B8E6FE"/>
<path d="M111.329 345.161L110.992 345.472L145.118 381.689L145.455 381.378L111.329 345.161Z" fill="#B8E6FE"/>
<path d="M111.662 344.855L111.325 345.166L145.452 381.384L145.788 381.073L111.662 344.855Z" fill="#B8E6FE"/>
<path d="M111.999 344.544L111.663 344.855L145.789 381.073L146.126 380.762L111.999 344.544Z" fill="#B8E6FE"/>
<path d="M112.339 344.229L112.002 344.54L146.128 380.758L146.465 380.447L112.339 344.229Z" fill="#B8E6FE"/>
<path d="M112.673 343.922L112.336 344.233L146.462 380.451L146.799 380.14L112.673 343.922Z" fill="#B8E6FE"/>
<path d="M113.012 343.607L112.675 343.918L146.801 380.136L147.138 379.825L113.012 343.607Z" fill="#B8E6FE"/>
<path d="M113.347 343.3L113.01 343.611L147.136 379.829L147.473 379.518L113.347 343.3Z" fill="#B8E6FE"/>
<path d="M113.683 342.99L113.346 343.301L147.472 379.518L147.809 379.207L113.683 342.99Z" fill="#B8E6FE"/>
<path d="M114.023 342.674L113.686 342.985L147.812 379.202L148.149 378.891L114.023 342.674Z" fill="#B8E6FE"/>
<path d="M114.357 342.368L114.02 342.679L148.147 378.897L148.484 378.586L114.357 342.368Z" fill="#B8E6FE"/>
<path d="M114.697 342.053L114.36 342.364L148.486 378.581L148.823 378.27L114.697 342.053Z" fill="#B8E6FE"/>
<path d="M115.031 341.746L114.694 342.057L148.82 378.275L149.157 377.964L115.031 341.746Z" fill="#B8E6FE"/>
<path d="M115.367 341.436L115.03 341.747L149.156 377.965L149.493 377.654L115.367 341.436Z" fill="#B8E6FE"/>
<path d="M115.707 341.12L115.37 341.431L149.496 377.648L149.833 377.337L115.707 341.12Z" fill="#B8E6FE"/>
<path d="M116.04 340.814L115.703 341.125L149.83 377.343L150.166 377.032L116.04 340.814Z" fill="#B8E6FE"/>
<path d="M116.381 340.497L116.044 340.808L150.17 377.026L150.507 376.715L116.381 340.497Z" fill="#B8E6FE"/>
<path d="M116.715 340.192L116.378 340.503L150.504 376.72L150.841 376.409L116.715 340.192Z" fill="#B8E6FE"/>
<path d="M117.052 339.881L116.715 340.192L150.841 376.41L151.178 376.099L117.052 339.881Z" fill="#B8E6FE"/>
<path d="M117.391 339.564L117.054 339.875L151.18 376.093L151.517 375.782L117.391 339.564Z" fill="#B8E6FE"/>
<path d="M117.725 339.26L117.388 339.571L151.514 375.788L151.851 375.478L117.725 339.26Z" fill="#B8E6FE"/>
<path d="M118.064 338.943L117.727 339.254L151.854 375.471L152.19 375.16L118.064 338.943Z" fill="#B8E6FE"/>
<path d="M118.398 338.638L118.061 338.949L152.187 375.167L152.524 374.856L118.398 338.638Z" fill="#B8E6FE"/>
<path d="M118.736 338.328L118.399 338.639L152.525 374.856L152.862 374.545L118.736 338.328Z" fill="#B8E6FE"/>
<path d="M119.076 338.01L118.739 338.321L152.865 374.538L153.202 374.227L119.076 338.01Z" fill="#B8E6FE"/>
<path d="M119.41 337.705L119.073 338.016L153.199 374.234L153.536 373.923L119.41 337.705Z" fill="#B8E6FE"/>
<path d="M119.749 337.388L119.412 337.699L153.538 373.917L153.875 373.606L119.749 337.388Z" fill="#B8E6FE"/>
<path d="M120.083 337.084L119.746 337.395L153.872 373.612L154.209 373.301L120.083 337.084Z" fill="#B8E6FE"/>
<path d="M120.42 336.772L120.083 337.083L154.209 373.301L154.546 372.99L120.42 336.772Z" fill="#B8E6FE"/>
<path d="M120.759 336.456L120.422 336.767L154.548 372.985L154.885 372.674L120.759 336.456Z" fill="#B8E6FE"/>
<path d="M121.094 336.151L120.757 336.462L154.883 372.68L155.22 372.369L121.094 336.151Z" fill="#B8E6FE"/>
<path d="M121.433 335.834L121.096 336.145L155.222 372.363L155.559 372.052L121.433 335.834Z" fill="#B8E6FE"/>
<path d="M121.767 335.529L121.431 335.84L155.557 372.058L155.894 371.747L121.767 335.529Z" fill="#B8E6FE"/>
<path d="M122.104 335.218L121.767 335.529L155.893 371.747L156.23 371.436L122.104 335.218Z" fill="#B8E6FE"/>
<path d="M122.443 334.902L122.106 335.213L156.233 371.431L156.569 371.12L122.443 334.902Z" fill="#B8E6FE"/>
<path d="M122.777 334.596L122.441 334.907L156.567 371.125L156.904 370.814L122.777 334.596Z" fill="#B8E6FE"/>
<path d="M123.117 334.28L122.78 334.591L156.906 370.809L157.243 370.498L123.117 334.28Z" fill="#B8E6FE"/>
<path d="M123.451 333.975L123.114 334.286L157.241 370.504L157.578 370.193L123.451 333.975Z" fill="#B8E6FE"/>
<path d="M123.791 333.658L123.454 333.969L157.58 370.187L157.917 369.876L123.791 333.658Z" fill="#B8E6FE"/>
<path d="M124.125 333.354L123.788 333.665L157.914 369.882L158.251 369.571L124.125 333.354Z" fill="#B8E6FE"/>
<path d="M124.461 333.042L124.124 333.353L158.251 369.571L158.588 369.26L124.461 333.042Z" fill="#B8E6FE"/>
<path d="M124.801 332.726L124.464 333.036L158.59 369.254L158.927 368.943L124.801 332.726Z" fill="#B8E6FE"/>
<path d="M125.135 332.42L124.798 332.731L158.925 368.949L159.262 368.638L125.135 332.42Z" fill="#B8E6FE"/>
<path d="M125.474 332.104L125.138 332.415L159.264 368.633L159.601 368.322L125.474 332.104Z" fill="#B8E6FE"/>
<path d="M125.809 331.799L125.472 332.11L159.599 368.328L159.935 368.017L125.809 331.799Z" fill="#B8E6FE"/>
<path d="M126.146 331.488L125.809 331.799L159.935 368.017L160.272 367.706L126.146 331.488Z" fill="#B8E6FE"/>
<path d="M126.151 331.475L126.378 331.267L126.542 331.223L160.615 367.381L160.279 367.692L126.151 331.475Z" fill="#B8E6FE"/>
<path d="M127.045 331.088L160.952 367.07L160.615 367.381L126.542 331.223L127.045 331.088Z" fill="#B8E6FE"/>
<path d="M127.548 330.953L161.289 366.759L160.952 367.07L127.045 331.088L127.548 330.953Z" fill="#B8E6FE"/>
<path d="M128.05 330.819L161.626 366.448L161.289 366.759L127.548 330.953L128.05 330.819Z" fill="#B8E6FE"/>
<path d="M128.554 330.684L161.963 366.138L161.626 366.448L128.05 330.818L128.554 330.684Z" fill="#B8E6FE"/>
<path d="M129.057 330.549L162.3 365.826L161.963 366.138L128.554 330.684L129.057 330.549Z" fill="#B8E6FE"/>
<path d="M129.56 330.414L162.637 365.516L162.3 365.826L129.057 330.549L129.56 330.414Z" fill="#B8E6FE"/>
<path d="M130.062 330.28L162.973 365.204L162.637 365.516L129.56 330.414L130.062 330.28Z" fill="#B8E6FE"/>
<path d="M130.565 330.145L163.31 364.894L162.973 365.204L130.062 330.28L130.565 330.145Z" fill="#B8E6FE"/>
<path d="M131.068 330.01L163.354 364.273L163.479 364.738L163.31 364.894L130.565 330.145L131.068 330.01Z" fill="#B8E6FE"/>
<path d="M131.57 329.875L163.104 363.338L163.354 364.273L131.068 330.01L131.57 329.875Z" fill="#B8E6FE"/>
<path d="M132.073 329.741L162.853 362.405L163.104 363.338L131.57 329.875L132.073 329.741Z" fill="#B8E6FE"/>
<path d="M132.575 329.606L162.603 361.471L162.853 362.405L132.073 329.741L132.575 329.606Z" fill="#B8E6FE"/>
<path d="M133.079 329.471L162.353 360.538L162.603 361.471L132.576 329.606L133.079 329.471Z" fill="#B8E6FE"/>
<path d="M133.582 329.336L162.103 359.603L162.353 360.538L133.079 329.471L133.582 329.336Z" fill="#B8E6FE"/>
<path d="M134.084 329.202L161.853 358.669L162.103 359.603L133.582 329.336L134.084 329.202Z" fill="#B8E6FE"/>
<path d="M134.587 329.067L161.602 357.736L161.853 358.67L134.084 329.202L134.587 329.067Z" fill="#B8E6FE"/>
<path d="M135.09 328.932L161.352 356.802L161.602 357.736L134.587 329.067L135.09 328.932Z" fill="#B8E6FE"/>
<path d="M135.593 328.797L161.102 355.868L161.352 356.801L135.09 328.932L135.593 328.797Z" fill="#B8E6FE"/>
<path d="M136.095 328.663L160.852 354.934L161.102 355.868L135.593 328.797L136.095 328.663Z" fill="#B8E6FE"/>
<path d="M136.598 328.528L160.602 354.001L160.852 354.934L136.095 328.663L136.598 328.528Z" fill="#B8E6FE"/>
<path d="M137.102 328.393L160.351 353.066L160.602 354.001L136.598 328.528L137.102 328.393Z" fill="#B8E6FE"/>
<path d="M137.604 328.259L160.101 352.133L160.351 353.066L137.102 328.393L137.604 328.259Z" fill="#B8E6FE"/>
<path d="M138.107 328.124L159.851 351.199L160.101 352.133L137.604 328.259L138.107 328.124Z" fill="#B8E6FE"/>
<path d="M159.851 351.199L138.107 328.124L152.625 324.234L159.851 351.199Z" fill="#B8E6FE"/>
</g>
<g opacity="0.5">
<path d="M101.815 385.004C112.291 369.714 106.608 356.653 119.811 346.263C136.334 333.261 153.697 347.96 153.697 347.96C153.697 347.96 154.656 349.791 155.541 352.704C154.648 347.358 152.666 343.573 152.666 343.573C152.666 343.573 135.3 328.87 118.779 341.877C102.258 354.884 115.315 372.065 89.2607 392.569C93.7576 389.03 97.92 386.627 101.815 385.004Z" fill="white"/>
</g>
<g opacity="0.3">
<path d="M155.964 357.265C154.702 361.262 152.217 365.276 147.769 368.781C134.103 379.536 121.597 369.36 102.938 377.119C100.247 382.031 96.1043 387.188 89.2608 392.573C115.317 372.073 130.144 389.664 146.667 376.662C154.107 370.802 156.061 363.512 155.964 357.265Z" fill="#1E1A4D"/>
</g>
<path d="M138.225 382.723C133.628 383.955 129.004 383.88 124.222 383.802C114.548 383.646 103.583 383.468 89.5422 394.518C89.3733 394.656 89.1785 394.76 88.9691 394.823C88.7597 394.886 88.5399 394.907 88.3226 394.886C88.1053 394.864 87.8948 394.799 87.7036 394.696C87.5123 394.592 87.344 394.452 87.2086 394.283C87.0732 394.114 86.9734 393.92 86.915 393.712C86.8566 393.504 86.8408 393.286 86.8686 393.072C86.8963 392.857 86.967 392.65 87.0765 392.462C87.186 392.274 87.3322 392.11 87.5064 391.978C101.567 380.914 104.109 370.583 106.359 361.467C108.227 353.884 109.992 346.721 117.761 340.607C124.971 334.933 133.502 333.445 142.429 336.304C149.069 338.428 153.543 342.179 153.735 342.337C153.894 342.472 154.025 342.635 154.121 342.82C154.235 343.036 156.912 348.204 157.495 355.094C158.283 364.36 154.889 372.255 147.68 377.929C144.516 380.42 141.376 381.879 138.225 382.723ZM106.259 382.141C112.878 380.367 118.786 380.463 124.292 380.554C132.067 380.679 138.783 380.788 145.644 375.39C159.909 364.165 152.473 346.998 151.339 344.608C149.154 342.868 134.185 331.82 119.794 343.147C112.912 348.563 111.353 354.891 109.547 362.219C107.869 369.027 106.033 376.474 99.8139 384.418C101.9 383.494 104.055 382.733 106.259 382.141Z" fill="#1E1A4D"/>
<path d="M223.605 223.65C223.605 223.65 246.534 226.685 251.45 231.04C256.365 235.394 243.574 238.963 243.574 238.963" fill="white"/>
<path d="M244.061 240.778C243.778 240.854 243.482 240.864 243.195 240.807C242.909 240.751 242.64 240.63 242.409 240.454L222.439 225.138C222.111 224.886 221.876 224.534 221.771 224.135C221.667 223.736 221.699 223.314 221.861 222.933C222.024 222.552 222.309 222.234 222.672 222.029C223.035 221.824 223.456 221.742 223.869 221.797C226.275 222.115 247.524 225.04 252.726 229.645C254.551 231.262 254.63 232.883 254.37 233.959C253.432 237.881 246.262 240.165 244.087 240.771L244.061 240.778ZM230.616 226.654L243.975 236.9C247.36 235.821 250.441 234.113 250.676 233.125C250.699 233.031 250.532 232.763 250.184 232.451C247.719 230.262 238.641 228.082 230.616 226.65L230.616 226.654Z" fill="#1E1A4D"/>
<path d="M124.952 201.96C118.527 210.041 118.751 240.26 125.121 256.605C131.49 272.95 161.968 266.13 179.057 260.961C196.146 255.792 185.774 217.321 182.786 207.071C178.12 191.068 134.474 189.987 124.952 201.96Z" fill="white"/>
<g opacity="0.25">
<path d="M179.057 260.961C161.966 266.127 131.488 272.939 125.117 256.598C124.237 254.297 123.508 251.941 122.935 249.545C128.685 251.967 134.436 246.9 134.024 242.17C131.483 212.946 139.139 199.424 143.244 194.394C159.327 192.385 179.681 196.425 182.783 207.076C185.777 217.324 196.149 255.801 179.057 260.961Z" fill="#1E1A4D"/>
</g>
<path d="M173.561 264.482C152.732 270.063 129.247 272.416 123.352 257.286C117.19 241.475 116.101 210.069 123.462 200.808C129.993 192.595 149.557 190.436 163.94 193.148C175.375 195.307 182.714 200.061 184.604 206.546C190.078 225.32 196.706 257.583 179.598 262.759C177.625 263.355 175.602 263.935 173.561 264.482ZM136.862 197.489C132.122 198.759 128.374 200.685 126.444 203.112C120.51 210.574 120.762 240.184 126.893 255.918C132.614 270.594 161.695 264.255 178.521 259.171C193.432 254.664 184.166 218.561 180.971 207.603C179.515 202.609 173.043 198.682 163.216 196.829C154.083 195.109 144.262 195.506 136.862 197.489Z" fill="#1E1A4D"/>
<path d="M134.216 229.762L125.759 228.8C125.308 228.749 124.851 228.793 124.418 228.929C123.985 229.066 123.586 229.292 123.246 229.592C122.907 229.892 122.636 230.26 122.45 230.671C122.265 231.081 122.169 231.526 122.17 231.975C122.204 238.529 123.129 251.882 130.063 252.808C138.468 253.936 138.839 244.6 136.997 232.413C136.892 231.73 136.563 231.1 136.061 230.622C135.559 230.143 134.911 229.841 134.216 229.762Z" fill="white"/>
<g opacity="0.25">
<path d="M136.976 232.397C138.846 244.581 138.496 253.916 130.09 252.809C126.638 252.36 124.666 248.821 123.556 244.576C124.512 245.62 125.667 246.317 127.073 246.501C134.596 247.489 135.67 240.11 134.461 229.804C135.101 229.926 135.685 230.24 136.135 230.705C136.586 231.169 136.879 231.76 136.976 232.397Z" fill="#1E1A4D"/>
</g>
<path d="M133.629 254.351C132.508 254.651 131.246 254.711 129.849 254.527C122.168 253.519 120.47 241.73 120.396 232.019C120.392 231.324 120.537 230.635 120.822 229.998C121.107 229.361 121.525 228.791 122.049 228.324C122.573 227.858 123.191 227.507 123.861 227.294C124.531 227.081 125.239 227.012 125.936 227.09L134.396 228.034C135.471 228.154 136.474 228.62 137.252 229.359C138.031 230.098 138.542 231.07 138.707 232.127C140.425 243.322 139.836 249.431 136.735 252.556C135.882 253.421 134.808 254.042 133.629 254.351ZM124.976 230.573C124.667 230.657 124.393 230.84 124.199 231.093C124.004 231.346 123.899 231.655 123.899 231.972C123.965 240.816 125.688 250.483 130.33 251.092C132.095 251.324 133.375 251.011 134.243 250.136C137.433 246.926 135.785 236.194 135.244 232.668C135.195 232.36 135.045 232.076 134.817 231.861C134.589 231.646 134.296 231.511 133.982 231.477L125.522 230.533C125.34 230.513 125.154 230.526 124.976 230.573Z" fill="#1E1A4D"/>
<path d="M123.842 202.298L133.956 203.992C137.328 204.58 140.688 205.158 144.068 205.853C144.306 205.902 144.516 206.04 144.654 206.238C144.791 206.436 144.846 206.68 144.806 206.918C144.766 207.156 144.635 207.371 144.441 207.517C144.246 207.663 144.002 207.73 143.76 207.703L143.743 207.702C140.388 207.325 136.976 207.057 133.581 206.782L123.375 206.022L123.357 206.021C122.88 205.953 122.448 205.708 122.148 205.336C121.848 204.964 121.703 204.492 121.743 204.016C121.782 203.54 122.003 203.096 122.36 202.773C122.717 202.45 123.185 202.273 123.667 202.277C123.721 202.283 123.785 202.29 123.842 202.298Z" fill="#1E1A4D"/>
<path d="M260.86 159.747C260.571 170.558 242.97 195.15 210.833 204.754C207.635 205.713 204.387 206.496 201.104 207.099L194.948 195.684L190.02 186.548C190.02 186.548 194.809 184.295 201.195 180.649C206.246 177.774 212.296 174.03 217.787 169.844C222.962 165.897 227.645 161.555 230.506 157.176C230.506 157.176 228.024 147.088 230.632 145.295C233.814 143.104 238.31 149.462 238.31 149.462C238.31 149.462 244.129 139.192 249.006 138.728C256.26 138.035 261.183 147.89 260.86 159.747Z" fill="white"/>
<g opacity="0.35">
<path d="M260.123 151.17C260.702 153.989 260.95 156.868 260.86 159.747C260.542 171.602 239.405 200.036 201.104 207.098L190.02 186.548C190.02 186.548 191.507 185.849 193.925 184.6L203.122 194.6C236.566 195.519 258.063 163.832 260.123 151.17Z" fill="#1E1A4D"/>
</g>
<path d="M208.779 207.287C206.404 207.924 203.96 208.476 201.446 208.945C201.201 208.992 200.948 208.991 200.704 208.942C200.459 208.892 200.227 208.795 200.021 208.656C199.815 208.517 199.64 208.339 199.504 208.133C199.368 207.926 199.275 207.694 199.231 207.451C199.186 207.208 199.191 206.959 199.244 206.717C199.297 206.475 199.399 206.246 199.542 206.042C199.685 205.838 199.867 205.665 200.078 205.531C200.289 205.396 200.524 205.305 200.77 205.261C238.542 198.293 258.683 170.175 258.967 159.71C259.168 152.24 257.122 145.405 253.751 142.297C252.359 141.012 250.821 140.44 249.181 140.595C246.508 140.851 242.182 146.465 239.966 150.375L238.488 152.985L236.763 150.546C235.377 148.596 232.748 146.194 231.739 146.816C231.003 147.7 231.291 152.398 232.352 156.724L232.544 157.507L232.099 158.188C222.179 173.355 192.108 187.646 190.831 188.242C190.376 188.456 189.855 188.483 189.382 188.318C188.91 188.152 188.524 187.807 188.31 187.358C188.097 186.91 188.072 186.394 188.243 185.925C188.413 185.457 188.765 185.073 189.219 184.859C189.518 184.719 218.675 170.868 228.476 156.827C227.625 153.077 226.48 145.892 229.559 143.767C232.686 141.61 236.06 144.146 238.081 146.246C240.309 142.833 244.56 137.278 248.842 136.869C251.567 136.608 254.161 137.536 256.347 139.552C260.533 143.414 262.986 151.17 262.756 159.791C262.428 171.861 243.193 198.064 208.779 207.287Z" fill="#1E1A4D"/>
<path d="M246.694 241.354C246.694 241.354 205.991 270.822 189.749 273.846C173.507 276.87 155.712 278.972 146.788 249.421C141.244 231.05 145.637 210.336 149.761 197.297C152.271 189.353 154.679 184.253 154.679 184.253L199.051 174.729C199.051 174.729 199.832 176.962 201.198 180.649C202.05 182.951 203.132 185.817 204.398 189.056C206.214 193.707 208.402 199.127 210.833 204.754C214.556 213.374 218.845 222.476 223.203 230.022C225.081 233.291 240.287 230.248 246.694 241.354Z" fill="white"/>
<path d="M206.614 192.953C209.666 197.789 212.033 202.869 214.41 207.943C216.786 213.017 219.086 218.111 221.613 223.085C222.249 224.326 222.903 225.556 223.565 226.781L224.572 228.605L224.827 229.06L224.842 229.088L224.841 229.082L224.838 229.07C224.835 229.062 224.831 229.055 224.826 229.049C224.819 229.045 224.812 229.041 224.804 229.039C224.81 229.039 224.816 229.04 224.821 229.042C224.831 229.047 224.824 229.055 224.842 229.067C224.872 229.081 224.9 229.098 224.928 229.116C225.008 229.164 225.091 229.206 225.177 229.242C225.593 229.424 226.216 229.578 226.852 229.715C227.488 229.852 228.173 229.962 228.868 230.074C230.256 230.297 231.697 230.52 233.143 230.816C236.031 231.402 238.998 232.269 241.71 233.846C243.079 234.632 244.339 235.588 245.46 236.692C246.58 237.807 247.548 239.062 248.338 240.427L249.186 241.885L247.804 242.875C241.32 247.517 234.758 251.97 228.072 256.293C221.387 260.616 214.591 264.77 207.523 268.548C203.981 270.425 200.383 272.225 196.567 273.716C194.663 274.464 192.711 275.144 190.592 275.585C190.053 275.715 189.582 275.788 189.087 275.886L187.609 276.149C186.618 276.321 185.625 276.488 184.627 276.633C180.637 277.22 176.511 277.599 172.33 277.234C170.22 277.058 168.137 276.658 166.116 276.042C164.072 275.409 162.118 274.522 160.302 273.4C158.504 272.274 156.851 270.935 155.381 269.413C153.923 267.924 152.618 266.296 151.485 264.552L151.054 263.909L150.66 263.249L149.876 261.923L149.162 260.57L148.807 259.892L148.484 259.202L147.841 257.822C147.635 257.359 147.451 256.89 147.258 256.423C146.857 255.493 146.515 254.546 146.173 253.599C144.794 249.807 143.782 245.891 143.15 241.905C142.537 237.933 142.247 233.916 142.284 229.894C142.329 221.872 143.514 213.928 145.338 206.175C146.25 202.298 147.157 198.407 148.518 194.653C149.88 190.898 151.52 187.234 154.103 184C154.192 183.888 154.317 183.808 154.456 183.773C154.596 183.738 154.743 183.75 154.875 183.807C155.007 183.864 155.115 183.963 155.183 184.088C155.251 184.213 155.275 184.357 155.251 184.498L155.247 184.523C154.578 188.458 153.467 192.169 152.321 195.872C151.213 199.582 149.926 203.245 149.036 207.015C147.246 214.539 146.118 222.226 146.073 229.894C146.038 233.716 146.313 237.532 146.895 241.305C147.49 245.062 148.444 248.753 149.745 252.327C150.069 253.223 150.391 254.119 150.769 254.988C150.952 255.424 151.125 255.867 151.317 256.299L151.917 257.581L152.215 258.223L152.543 258.847L153.201 260.094L153.915 261.299L154.273 261.902L154.662 262.48C155.665 264.027 156.821 265.472 158.113 266.793C159.374 268.099 160.791 269.249 162.334 270.218C165.409 272.132 168.978 273.177 172.693 273.492C176.408 273.806 180.251 273.485 184.09 272.917C185.05 272.778 186.013 272.616 186.978 272.45L188.428 272.191C188.906 272.101 189.419 272.019 189.84 271.915C190.283 271.805 190.726 271.738 191.172 271.595L192.518 271.2C193.414 270.887 194.312 270.594 195.204 270.227C198.782 268.832 202.29 267.081 205.749 265.251C212.663 261.555 219.394 257.431 226.022 253.162C232.65 248.893 239.191 244.438 245.582 239.86L245.049 242.307C243.793 240.139 241.979 238.341 239.79 237.095C237.59 235.815 235.034 235.041 232.365 234.502C231.027 234.227 229.657 234.014 228.238 233.786C227.529 233.669 226.809 233.555 226.059 233.396C225.309 233.238 224.537 233.068 223.648 232.691C223.407 232.59 223.174 232.471 222.951 232.335L222.589 232.103C222.46 232.008 222.332 231.891 222.209 231.78C221.974 231.601 221.696 231.191 221.539 230.948L221.274 230.483L220.212 228.626C219.517 227.379 218.834 226.135 218.171 224.878C216.836 222.368 215.526 219.851 214.285 217.3C213.043 214.749 211.881 212.168 210.769 209.566C208.562 204.355 206.582 199.048 205.444 193.434C205.415 193.289 205.439 193.137 205.511 193.007C205.583 192.876 205.699 192.774 205.838 192.718C205.978 192.663 206.133 192.658 206.275 192.703C206.418 192.749 206.54 192.842 206.619 192.968L206.614 192.953Z" fill="#1E1A4D"/>
<path d="M180.257 356.745L172.736 360.052C171.065 360.786 169.227 361.061 167.417 360.847C165.607 360.633 163.892 359.937 162.455 358.835C153.739 352.143 147.054 343.209 143.125 332.999C142.478 331.316 142.304 329.488 142.623 327.709C142.941 325.931 143.74 324.267 144.935 322.896L150.314 316.721" fill="#B8E6FE"/>
<g opacity="0.6">
<path d="M152.898 320.79L147.573 326.904C146.253 328.42 145.369 330.259 145.018 332.226C144.666 334.193 144.859 336.214 145.575 338.075C146.137 339.537 146.752 340.977 147.418 342.394C145.851 339.69 144.501 336.867 143.381 333.951C142.734 332.269 142.561 330.441 142.879 328.663C143.198 326.884 143.996 325.221 145.19 323.85L150.571 317.676L152.898 320.79Z" fill="white"/>
</g>
<g opacity="0.35">
<path d="M152.389 347.798C154.842 350.53 157.545 353.032 160.462 355.273C161.899 356.377 163.614 357.073 165.424 357.287C167.235 357.501 169.073 357.225 170.743 356.489L177.759 353.404L150.315 316.719L149.167 318.037L169.513 345.231L161.987 348.541C160.447 349.219 158.761 349.506 157.085 349.376C155.409 349.246 153.794 348.704 152.389 347.798ZM167.012 341.893L149.164 318.039L149.527 317.622L167.519 341.67L167.012 341.893Z" fill="#1E1A4D"/>
</g>
<path d="M166.441 299.637C160.247 292.837 143.47 286.139 120.592 310.736C120.526 310.808 120.483 310.898 120.468 310.994C120.454 311.09 120.469 311.187 120.512 311.274C120.555 311.361 120.623 311.433 120.708 311.481C120.793 311.529 120.891 311.55 120.989 311.542C125.78 311.121 148.274 308.976 155.176 318.972" fill="#B8E6FE"/>
<g opacity="0.6">
<path d="M125.55 310.716C123.464 310.828 121.812 310.98 120.861 311.063C120.764 311.071 120.666 311.05 120.581 311.003C120.496 310.955 120.428 310.883 120.385 310.797C120.342 310.71 120.327 310.612 120.341 310.516C120.355 310.421 120.398 310.331 120.464 310.259C143.343 285.661 160.119 292.362 166.314 299.16L165.093 301.254C158.017 295.942 143.978 293.13 125.55 310.716Z" fill="white"/>
</g>
<path d="M155.661 320.784C155.282 320.885 154.881 320.868 154.513 320.735C154.146 320.601 153.83 320.358 153.609 320.038C151.302 316.695 144.046 311.387 121.371 313.388L121.145 313.409C120.666 313.45 120.188 313.348 119.771 313.116C119.354 312.883 119.019 312.531 118.809 312.106C118.599 311.68 118.524 311.201 118.594 310.731C118.664 310.261 118.876 309.822 119.202 309.472C130.324 297.513 141.192 291.459 151.505 291.478C160.604 291.498 165.969 296.308 167.854 298.378C168.189 298.746 168.362 299.232 168.334 299.728C168.307 300.225 168.081 300.692 167.707 301.026C167.332 301.36 166.84 301.534 166.338 301.51C165.836 301.485 165.366 301.265 165.031 300.897C163.482 299.197 159.057 295.242 151.475 295.228C143.147 295.212 133.874 300.097 124.504 309.396C145.312 308.14 153.536 313.253 156.744 317.91C156.915 318.157 157.022 318.441 157.058 318.738C157.094 319.035 157.058 319.337 156.952 319.619C156.846 319.9 156.674 320.153 156.449 320.355C156.225 320.558 155.955 320.705 155.662 320.784L155.661 320.784Z" fill="#1E1A4D"/>
<path d="M200.858 345.641C205.624 353.491 207.525 371.758 177.131 386.308C177.043 386.35 176.944 386.364 176.847 386.35C176.751 386.335 176.661 386.292 176.59 386.227C176.518 386.161 176.469 386.076 176.448 385.981C176.426 385.887 176.434 385.789 176.47 385.699C178.268 381.277 186.547 360.13 178.898 350.68" fill="#D25658"/>
<path d="M177.133 386.312C177.045 386.354 176.945 386.368 176.849 386.353C176.752 386.338 176.663 386.295 176.591 386.229C176.52 386.163 176.471 386.078 176.449 385.983C176.428 385.889 176.436 385.79 176.471 385.7C177.391 383.436 180.012 376.782 181.321 369.561C182.561 362.736 182.625 355.402 178.978 350.785C178.953 350.752 178.922 350.717 178.897 350.684L179.03 350.648L200.855 345.637C202.193 347.839 203.306 350.864 203.539 354.398C204.148 363.453 198.996 375.841 177.133 386.312Z" fill="#B8E6FE"/>
<g opacity="0.35">
<path d="M181.321 369.561C182.561 362.736 182.625 355.402 178.978 350.785C178.995 350.742 179.012 350.696 179.031 350.652L200.856 345.641C202.194 347.843 203.307 350.868 203.54 354.402C199.54 360.107 192.63 365.597 181.321 369.561Z" fill="#1E1A4D"/>
</g>
<path d="M177.524 388.155C177.098 388.267 176.649 388.26 176.228 388.135C175.807 388.01 175.43 387.771 175.138 387.446C174.847 387.121 174.653 386.722 174.578 386.293C174.503 385.864 174.55 385.422 174.713 385.016C177.029 379.318 184.07 360.086 177.416 351.865C177.102 351.478 176.957 350.982 177.013 350.487C177.069 349.992 177.321 349.537 177.715 349.224C178.108 348.911 178.61 348.764 179.11 348.816C179.611 348.868 180.068 349.115 180.383 349.502C187.154 357.868 182.865 373.86 179.534 383.001C191.073 376.887 198.403 369.532 200.816 361.6C203.146 353.945 200.194 348.192 199.234 346.611C198.976 346.186 198.9 345.676 199.022 345.193C199.145 344.71 199.456 344.294 199.887 344.036C200.319 343.778 200.835 343.7 201.322 343.818C201.81 343.936 202.229 344.241 202.487 344.666C203.973 347.118 207.147 353.78 204.445 362.659C201.456 372.484 192.542 381.006 177.952 387.994C177.815 388.061 177.672 388.115 177.524 388.155Z" fill="#1E1A4D"/>
<path d="M308.7 231.085C308.7 231.085 313.613 278.182 261.851 321.958C217.752 359.249 179.722 356.888 179.722 356.888C165.206 347.542 154.584 333.343 149.78 316.86C149.78 316.86 153.689 300.456 170.845 280.326C171.435 279.635 172.043 278.934 172.669 278.233C179.434 270.613 188.09 262.528 199.134 254.653C201.739 252.794 204.479 250.95 207.356 249.119C207.469 249.046 207.583 248.976 207.697 248.907C219.314 241.563 230.384 236.472 240.644 233.012C240.972 232.901 241.297 232.794 241.622 232.688C281.306 219.674 308.7 231.085 308.7 231.085Z" fill="white"/>
<path d="M291.781 288.764C281.614 266.571 266.809 246.782 248.336 230.693C284.651 220.706 309.23 230.943 309.23 230.943C309.23 230.943 311.972 257.223 291.781 288.764Z" fill="#B8E6FE"/>
<g opacity="0.6">
<path d="M309.226 233.948C309.229 231.694 309.102 230.466 309.102 230.466C309.102 230.466 284.525 220.227 248.208 230.215C249.401 231.254 250.578 232.308 251.739 233.378C282.689 225.533 304.63 232.3 309.226 233.948Z" fill="white"/>
</g>
<path d="M291.499 292.699L290.054 289.546C279.933 267.451 265.474 248.124 247.079 232.103L244.455 229.818L247.835 228.888C276.62 220.964 298.274 225.599 306.25 227.957C307.705 228.38 308.979 229.259 309.88 230.463C310.781 231.667 311.26 233.131 311.245 234.634C311.203 242.882 309.377 264.766 293.376 289.761L291.499 292.699ZM252.222 231.617C268.831 246.636 282.342 264.696 292.018 284.811C305.795 261.896 307.42 242.236 307.459 234.637C307.466 233.942 307.244 233.265 306.827 232.708C306.41 232.151 305.821 231.744 305.148 231.548C297.801 229.377 278.345 225.207 252.222 231.617Z" fill="#1E1A4D"/>
<path d="M204.937 355.163C189.978 359.171 180.521 358.641 180.123 358.615L179.629 358.585L179.213 358.318C164.316 348.732 153.416 334.163 148.489 317.25L148.353 316.78L148.467 316.302C148.56 315.914 150.828 306.656 159.194 293.481C166.863 281.401 181.363 263.6 206.869 247.405C220.243 238.914 234.027 232.684 247.84 228.887L248.828 228.615L249.594 229.283C268.346 245.615 283.097 265.309 293.434 287.821L294.059 288.698L293.383 289.763C285.709 301.76 275.687 313.023 263.605 323.244C240.56 342.732 219.163 351.31 205.272 355.075L204.937 355.163ZM180.86 354.89C182.946 354.937 191.749 354.894 204.487 351.404C217.958 347.729 238.723 339.363 261.152 320.398C272.655 310.671 282.23 299.987 289.632 288.63C279.675 267.222 265.623 248.44 247.845 232.774C234.731 236.493 221.635 242.473 208.902 250.556C164.202 278.938 153.492 312.412 152.278 316.686C156.972 332.364 167.087 345.883 180.86 354.89Z" fill="#1E1A4D"/>
<path d="M171.74 362.382C169.949 362.862 168.074 362.925 166.26 362.567C164.446 362.209 162.744 361.439 161.286 360.318C152.297 353.418 145.404 344.203 141.353 333.673C140.582 331.675 140.375 329.504 140.754 327.392C141.132 325.279 142.081 323.304 143.501 321.676L148.881 315.501C149.042 315.308 149.24 315.149 149.464 315.032C149.688 314.915 149.933 314.844 150.184 314.822C150.436 314.8 150.689 314.828 150.929 314.904C151.168 314.98 151.39 315.103 151.581 315.265C151.772 315.428 151.927 315.626 152.039 315.849C152.151 316.072 152.216 316.316 152.231 316.565C152.247 316.814 152.211 317.064 152.128 317.3C152.044 317.536 151.914 317.753 151.745 317.94L146.366 324.113C145.395 325.227 144.745 326.578 144.486 328.024C144.227 329.469 144.369 330.954 144.896 332.322C148.701 342.213 155.177 350.868 163.621 357.351C164.788 358.248 166.181 358.814 167.652 358.989C169.123 359.163 170.617 358.938 171.974 358.34L179.499 355.032C179.959 354.829 180.481 354.816 180.949 354.994C181.417 355.172 181.794 355.527 181.995 355.981C182.197 356.435 182.208 356.951 182.025 357.415C181.842 357.88 181.481 358.254 181.02 358.457L173.496 361.764C172.927 362.014 172.34 362.221 171.74 362.382Z" fill="#1E1A4D"/>
<g opacity="0.35">
<path d="M266.012 295.509C273.249 283.154 269.027 267.397 256.582 260.315C244.138 253.233 228.183 257.508 220.947 269.863C213.71 282.219 217.932 297.976 230.377 305.058C242.821 312.14 258.776 307.865 266.012 295.509Z" fill="#1E1A4D"/>
</g>
<path d="M249.208 301.841C261.723 298.487 269.183 285.75 265.871 273.39C262.559 261.031 249.73 253.73 237.215 257.083C224.701 260.436 217.241 273.174 220.552 285.533C223.864 297.893 236.694 305.194 249.208 301.841Z" fill="#B8E6FE"/>
<g opacity="0.6">
<path d="M264.54 269.907C264.255 269.463 263.953 269.028 263.634 268.601C255.958 258.339 241.283 256.23 230.861 263.889C221.673 270.64 218.856 282.729 223.578 292.529C216.986 282.369 219.443 268.704 229.434 261.363C239.859 253.703 254.531 255.813 262.212 266.078C263.11 267.277 263.89 268.56 264.54 269.907Z" fill="white"/>
</g>
<g opacity="0.35">
<path d="M257.112 298.043C246.692 305.701 232.019 303.596 224.34 293.332C222.005 290.22 220.507 286.571 219.984 282.722C220.689 284.321 221.574 285.836 222.623 287.238C230.301 297.502 244.975 299.613 255.398 291.953C258.788 289.462 261.442 286.119 263.082 282.273C264.722 278.427 265.287 274.222 264.718 270.099C268.982 279.768 266.083 291.45 257.112 298.043Z" fill="#1E1A4D"/>
</g>
<path d="M249.691 303.664C243.58 305.313 237.082 304.65 231.467 301.807C225.852 298.963 221.524 294.143 219.33 288.289C217.136 282.435 217.234 275.969 219.604 270.154C221.974 264.339 226.446 259.595 232.145 256.849C237.845 254.103 244.361 253.553 250.421 255.306C256.48 257.059 261.646 260.989 264.909 266.328C268.172 271.667 269.296 278.031 268.063 284.174C266.829 290.317 263.326 295.799 258.238 299.546C255.674 301.438 252.773 302.835 249.691 303.664ZM237.702 258.879C234.636 259.7 231.787 261.18 229.358 263.212C226.93 265.245 224.981 267.779 223.651 270.636C222.321 273.492 221.644 276.6 221.666 279.737C221.688 282.874 222.41 285.963 223.78 288.784C225.151 291.605 227.135 294.088 229.592 296.056C232.05 298.024 234.919 299.428 237.996 300.169C241.073 300.91 244.282 300.969 247.393 300.342C250.504 299.714 253.441 298.416 255.995 296.54C260.027 293.57 262.896 289.308 264.107 284.489C265.319 279.669 264.797 274.594 262.631 270.135C260.466 265.676 256.793 262.112 252.243 260.058C247.694 258.003 242.553 257.586 237.706 258.878L237.702 258.879Z" fill="#1E1A4D"/>
<path d="M256.163 286.412C260.303 279.343 257.887 270.328 250.767 266.277C243.648 262.225 234.52 264.671 230.38 271.739C226.24 278.808 228.655 287.823 235.775 291.874C242.895 295.926 252.023 293.48 256.163 286.412Z" fill="#B8E6FE"/>
<g opacity="0.3">
<path d="M252.116 290.899C248.931 293.239 244.946 294.237 241.036 293.674C237.125 293.111 233.611 291.034 231.266 287.898C230.235 286.527 229.457 284.985 228.969 283.344C229.062 283.478 229.158 283.611 229.257 283.747C231.337 286.53 234.347 288.493 237.757 289.289C241.168 290.086 244.761 289.665 247.904 288.101C251.046 286.537 253.538 283.93 254.94 280.739C256.342 277.548 256.564 273.977 255.568 270.654C257.756 273.796 258.62 277.664 257.975 281.442C257.331 285.219 255.23 288.61 252.116 290.899Z" fill="white"/>
</g>
<g opacity="0.35">
<path d="M258.036 275.906C257.893 275.698 257.749 275.49 257.594 275.283C255.55 272.551 252.608 270.608 249.268 269.787C245.929 268.966 242.397 269.316 239.274 270.779C236.152 272.241 233.631 274.725 232.141 277.809C230.65 280.892 230.282 284.384 231.099 287.692C229.903 285.904 229.117 283.876 228.798 281.75C228.479 279.625 228.634 277.453 229.252 275.388C229.871 273.322 230.937 271.412 232.377 269.792C233.817 268.172 235.596 266.881 237.589 266.009C239.581 265.137 241.74 264.706 243.914 264.745C246.087 264.784 248.222 265.293 250.17 266.236C252.118 267.179 253.832 268.533 255.19 270.203C256.549 271.874 257.52 273.82 258.036 275.906Z" fill="#1E1A4D"/>
</g>
<path d="M247.569 295.131C244.309 295.998 240.867 295.878 237.689 294.789C234.511 293.699 231.742 291.69 229.74 289.02C224.245 281.672 225.841 271.234 233.302 265.75C240.763 260.266 251.306 261.782 256.803 269.13C262.3 276.478 260.701 286.916 253.239 292.399C251.538 293.654 249.614 294.581 247.569 295.131ZM239.926 266.65C238.348 267.073 236.863 267.787 235.55 268.755C229.771 273.002 228.533 281.081 232.791 286.777C233.805 288.132 235.08 289.275 236.543 290.14C238.007 291.005 239.63 291.575 241.32 291.818C243.01 292.061 244.734 291.972 246.394 291.556C248.053 291.141 249.616 290.406 250.992 289.394C256.771 285.147 258.009 277.068 253.751 271.372C252.199 269.303 250.051 267.746 247.586 266.904C245.121 266.062 242.452 265.974 239.926 266.65Z" fill="#1E1A4D"/>
<g opacity="0.2">
<path d="M282.137 235.943C281.117 232.574 273.257 231.826 269.217 232.941C265.036 234.096 262.706 235.484 263.225 237.493C263.948 240.297 267.476 240.408 271.395 239.514C274.165 238.881 283.397 240.102 282.137 235.943Z" fill="white"/>
</g>
<g opacity="0.2">
<path d="M293.79 237.424C292.775 234.538 288.433 232.76 286.411 233.063C284.317 233.378 283.251 234.157 283.808 235.863C284.585 238.246 286.501 238.861 288.49 238.72C289.897 238.619 295.04 240.985 293.79 237.424Z" fill="white"/>
</g>
<g opacity="0.35">
<path d="M178.391 353.659C178.391 353.659 216.42 356.02 260.518 318.733C305.302 280.861 307.66 240.511 307.482 230.313C307.769 230.407 308.02 230.493 308.236 230.57C307.356 230.259 305.906 229.782 303.929 229.257C301.156 246.74 291.325 276.307 257.988 304.498C237.166 322.105 217.697 330.873 202.947 335.223C184.112 340.782 163.834 333.327 153.647 316.795C153.591 316.707 153.535 316.612 153.478 316.522C153.078 315.864 152.689 315.199 152.311 314.527C152.134 314.255 151.954 313.987 151.781 313.71C151.726 313.623 151.669 313.527 151.613 313.437C151.556 313.347 151.497 313.239 151.438 313.141L151.48 313.027C150.629 315.391 150.31 316.72 150.31 316.72C151.858 322.03 154.023 327.142 156.761 331.953C162.303 340.65 169.68 348.053 178.391 353.659Z" fill="#1E1A4D"/>
</g>
<path d="M172.624 342.038C163.32 348.873 148.736 348.354 148.736 348.354C148.736 348.354 148.75 348.3 148.779 348.205C149.211 346.681 153.035 333.956 161.768 327.531C170.149 321.368 181.35 322.387 183.362 322.632C183.569 322.658 183.678 322.674 183.678 322.674C183.678 322.674 181.868 335.253 172.624 342.038Z" fill="#B8E6FE"/>
<g opacity="0.6">
<path d="M184.29 323.021C184.29 323.021 184.184 323.786 183.876 325.04C180.084 324.783 170.875 324.808 163.717 330.071C156.695 335.237 152.846 344.478 151.381 348.688C150.104 348.729 149.346 348.703 149.346 348.703C149.346 348.703 149.363 348.648 149.39 348.552C149.823 347.03 153.647 334.302 162.381 327.88C170.762 321.716 181.96 322.737 183.972 322.981C184.182 323.006 184.29 323.021 184.29 323.021Z" fill="white"/>
</g>
<g opacity="0.35">
<path d="M172.624 342.038C163.32 348.872 148.736 348.354 148.736 348.354C148.736 348.354 148.75 348.3 148.779 348.205L183.362 322.632C183.569 322.657 183.678 322.674 183.678 322.674C183.678 322.674 181.868 335.253 172.624 342.038Z" fill="#1E1A4D"/>
</g>
<path d="M162.891 348.502C155.659 350.44 149.068 350.242 148.655 350.227L146.3 350.141L146.903 347.883C147.063 347.287 150.92 333.179 160.646 326.027C170.413 318.846 183.428 320.736 183.978 320.82L185.816 321.101L185.554 322.925C185.476 323.47 183.521 336.363 173.749 343.54C170.456 345.961 166.589 347.511 162.891 348.502ZM151.336 346.441C155.767 346.245 165.084 345.25 171.501 340.538C177.917 335.825 180.508 327.969 181.397 324.353C177.643 324.151 169.29 324.33 162.894 329.034C156.462 333.762 152.809 342.299 151.336 346.441Z" fill="#1E1A4D"/>
<g opacity="0.25">
<path d="M214.355 291.298C216.345 292.955 230.759 306.89 224.506 315.638C219.035 323.299 205.824 325.821 196.565 318.563C190.443 313.76 187.671 307.076 186.507 301.707C185.15 295.434 184.689 289.226 180.319 285.428C177.988 283.396 174.65 281.929 170.843 280.327C171.433 279.635 172.041 278.935 172.667 278.233C179.432 270.614 188.088 262.528 199.132 254.653C201.833 255.151 204.52 256.001 206.953 257.371C216.553 262.787 220.769 277.679 217.232 285.123C215.836 288.055 214.355 291.298 214.355 291.298Z" fill="#1E1A4D"/>
</g>
<path d="M217.726 285.546C219.716 287.204 234.131 301.138 227.877 309.886C222.405 317.548 209.194 320.069 199.932 312.813C193.81 308.01 191.038 301.327 189.873 295.957C188.516 289.684 188.056 283.476 183.686 279.679C178.711 275.349 164.298 277.097 155.297 271.128C149.992 267.615 145.571 259.835 143.196 249.491C142.442 246.167 141.92 242.793 141.632 239.395C140.315 224.226 143.024 205.646 152.279 187.358C152.279 187.358 163.084 206.686 173.52 223.633C180.793 235.447 187.89 246.103 191.01 248.237C191.425 248.524 191.769 248.654 192.036 248.622C195.297 248.207 198.599 248.263 201.838 248.788C204.754 249.266 207.683 250.14 210.312 251.617C219.911 257.033 224.128 271.926 220.59 279.37C219.204 282.305 217.726 285.546 217.726 285.546Z" fill="white"/>
<g opacity="0.25">
<path d="M229.426 305.413C229.36 307.018 228.823 308.572 227.88 309.885C222.408 317.547 209.197 320.069 199.935 312.812C193.815 308.014 191.04 301.326 189.876 295.956C188.519 289.683 188.054 283.476 183.69 279.682C178.716 275.353 164.3 277.094 155.296 271.133C149.998 267.617 145.573 259.83 143.198 249.487C143.186 249.443 143.178 249.391 143.166 249.347C143.087 248.999 143.013 248.65 142.939 248.297C142.872 247.975 142.804 247.649 142.739 247.317C142.71 247.17 142.679 247.019 142.652 246.865C142.508 246.085 142.369 245.293 142.247 244.488C142.189 244.106 142.134 243.718 142.077 243.326C142.039 243.055 142.004 242.779 141.97 242.502C141.937 242.273 141.911 242.043 141.887 241.807C141.844 241.445 141.806 241.083 141.765 240.714C141.723 240.298 141.684 239.877 141.645 239.456C141.639 239.433 141.641 239.408 141.64 239.384C141.793 239.078 141.962 238.781 142.147 238.492C142.147 238.492 143.697 238.742 146.853 238.705C151.869 238.65 160.944 237.886 174.319 234.283L172.272 227.487C172.063 226.795 172.072 226.055 172.296 225.365C172.521 224.675 172.95 224.067 173.529 223.621C173.809 223.403 174.121 223.227 174.454 223.102L182.531 219.997L202.247 245.512L191.019 248.229L182.574 250.274C181.688 250.453 180.768 250.299 179.995 249.842C179.222 249.385 178.65 248.658 178.392 247.803L177.365 244.391C170.46 247.983 158.423 251.662 149.874 251.209C152.378 258.207 155.946 263.447 160.029 266.154C169.031 272.124 178.26 265.151 187.429 271.343C193.16 275.218 193.249 284.71 194.606 290.983C195.77 296.352 195.779 304.683 201.894 309.483C209.982 315.835 222.69 311.673 229.426 305.413Z" fill="#1E1A4D"/>
</g>
<g opacity="0.25">
<path d="M217.794 169.842C214.918 177.191 210.329 183.775 204.403 189.054C198.708 194.101 191.936 197.808 184.599 199.896C177.262 201.984 169.552 202.398 162.051 201.107C155.159 199.907 148.555 204.583 147.394 211.425C145.725 221.27 145.694 230.585 146.853 238.71C143.697 238.747 142.147 238.497 142.147 238.497C141.963 238.786 141.793 239.083 141.64 239.389C140.324 224.22 143.033 205.64 152.288 187.351L152.797 188.703C153.918 185.868 154.682 184.248 154.682 184.248L199.054 174.724C199.054 174.724 199.835 176.957 201.201 180.644C206.249 177.773 212.299 174.029 217.794 169.842Z" fill="#1E1A4D"/>
</g>
<path d="M192.792 247.91C195.162 247.242 197.653 246.982 200.143 247.055C202.632 247.127 205.137 247.505 207.564 248.311C208.789 248.717 209.977 249.22 211.119 249.816C212.276 250.44 213.368 251.174 214.38 252.008C216.392 253.67 218.021 255.685 219.351 257.834C220.655 259.988 221.684 262.294 222.415 264.701C223.179 267.104 223.616 269.599 223.715 272.121C223.793 274.66 223.556 277.3 222.441 279.865L219.447 286.309L218.946 284.109C219.458 284.543 219.868 284.935 220.299 285.349C220.73 285.763 221.133 286.176 221.535 286.597C222.344 287.441 223.125 288.307 223.877 289.197C225.405 290.986 226.79 292.891 228.019 294.895C229.236 296.933 230.314 299.12 230.912 301.582C231.205 302.81 231.391 304.106 231.314 305.451C231.249 306.825 230.911 308.174 230.319 309.421L230.093 309.892C230.011 310.045 229.913 310.188 229.824 310.335C229.636 310.619 229.459 310.945 229.255 311.175C228.848 311.668 228.465 312.186 228.031 312.65C227.575 313.093 227.131 313.548 226.659 313.974L225.165 315.142C223.1 316.563 220.799 317.61 218.368 318.233C215.959 318.858 213.467 319.097 210.987 318.94C208.507 318.803 206.066 318.174 203.786 317.219C203.214 316.979 202.637 316.75 202.107 316.429C201.576 316.108 201.01 315.85 200.496 315.508L198.987 314.442C198.486 314.083 198.045 313.677 197.572 313.294C195.763 311.686 194.166 309.859 192.816 307.856C191.492 305.862 190.398 303.726 189.555 301.489C189.129 300.38 188.764 299.25 188.459 298.103C188.305 297.53 188.169 296.952 188.036 296.373L187.688 294.69C187.242 292.455 186.864 290.269 186.317 288.209C185.769 286.148 185.042 284.224 183.905 282.691C183.772 282.494 183.624 282.307 183.463 282.131C183.303 281.958 183.164 281.762 182.989 281.604L182.478 281.115C182.321 280.979 182.157 280.852 181.986 280.734C181.283 280.26 180.38 279.872 179.404 279.563C177.435 278.95 175.236 278.584 173.017 278.224C168.574 277.507 163.911 276.882 159.373 275.223C157.113 274.377 154.892 273.287 152.908 271.691C150.954 270.118 149.383 268.237 148.045 266.261C146.738 264.29 145.603 262.212 144.652 260.048C143.736 257.906 142.948 255.712 142.292 253.477C141.008 249.019 140.221 244.458 139.789 239.877C138.982 230.707 139.642 221.457 141.502 212.465C142.478 207.981 143.493 203.485 145.078 199.158C146.688 194.852 148.695 190.652 151.73 187.067C151.823 186.956 151.952 186.879 152.094 186.849C152.236 186.819 152.384 186.837 152.515 186.9C152.645 186.963 152.75 187.067 152.813 187.197C152.875 187.326 152.892 187.473 152.86 187.614L152.862 187.619C151.832 192.113 150.284 196.239 148.9 200.451C147.492 204.642 146.077 208.852 145.217 213.196C143.424 221.855 142.795 230.757 143.567 239.518C143.979 243.891 144.731 248.231 145.937 252.418C146.548 254.499 147.281 256.542 148.134 258.537C148.992 260.493 150.016 262.374 151.195 264.158C152.374 265.907 153.738 267.516 155.31 268.777C156.85 270.023 158.738 270.973 160.718 271.71C164.721 273.181 169.139 273.807 173.645 274.523C175.907 274.894 178.208 275.259 180.578 275.993C181.76 276.371 182.975 276.856 184.151 277.644C184.447 277.847 184.731 278.066 185.002 278.3L185.714 278.979C185.954 279.204 186.155 279.464 186.372 279.707C186.589 279.949 186.79 280.204 186.975 280.472C187.726 281.498 188.348 282.611 188.828 283.786C189.295 284.904 189.68 286.053 189.983 287.225C190.589 289.513 190.972 291.762 191.408 293.937L191.739 295.559C191.86 296.078 191.977 296.597 192.119 297.109C192.392 298.136 192.719 299.147 193.099 300.139C193.844 302.114 194.809 303.999 195.977 305.76C198.33 309.212 201.508 312.215 205.299 313.757C207.187 314.545 209.209 315.077 211.282 315.185C213.347 315.314 215.422 315.114 217.427 314.595C219.419 314.089 221.305 313.237 222.999 312.078L224.189 311.145C224.558 310.806 224.904 310.448 225.267 310.104C225.605 309.741 225.891 309.34 226.212 308.963C226.389 308.771 226.467 308.587 226.595 308.399C226.652 308.306 226.719 308.217 226.77 308.12L226.908 307.825C227.671 306.268 227.721 304.378 227.234 302.462C226.775 300.545 225.861 298.637 224.771 296.822C223.643 294.987 222.374 293.242 220.974 291.602C220.271 290.773 219.542 289.963 218.789 289.179C218.414 288.784 218.031 288.402 217.645 288.024C217.26 287.646 216.854 287.271 216.506 286.975L215.414 286.047L216.006 284.774L218.981 278.363C219.762 276.583 220.021 274.42 219.925 272.273C219.72 267.953 218.239 263.6 215.908 259.938C214.732 258.111 213.35 256.431 211.742 255.058C210.944 254.373 210.086 253.761 209.178 253.23C208.244 252.685 207.268 252.217 206.257 251.83C204.168 251.032 202.01 250.423 199.809 250.01C197.575 249.584 195.284 249.323 192.921 249.14L192.916 249.142C192.767 249.13 192.627 249.066 192.52 248.962C192.414 248.858 192.347 248.72 192.333 248.572C192.319 248.425 192.358 248.276 192.443 248.153C192.528 248.03 192.654 247.94 192.798 247.899L192.792 247.91Z" fill="#1E1A4D"/>
<path d="M187.222 285.387C186.89 285.474 186.538 285.44 186.231 285.291C185.925 285.142 185.683 284.887 185.552 284.575C179.231 269.534 186.615 259.644 190.084 256.089C195.833 250.198 203.971 247.611 209.874 249.799C210.051 249.862 210.212 249.96 210.35 250.085C210.488 250.211 210.599 250.363 210.677 250.531C210.755 250.7 210.798 250.883 210.804 251.069C210.81 251.254 210.778 251.44 210.711 251.614C210.645 251.788 210.543 251.948 210.414 252.083C210.285 252.219 210.129 252.328 209.958 252.404C209.786 252.48 209.6 252.522 209.412 252.527C209.224 252.532 209.038 252.5 208.863 252.433C204.066 250.655 197.027 253.011 192.123 258.037C189.046 261.189 182.503 269.979 188.178 283.482C188.25 283.652 188.287 283.835 188.287 284.02C188.287 284.205 188.251 284.388 188.179 284.559C188.108 284.731 188.003 284.887 187.871 285.018C187.739 285.15 187.582 285.255 187.41 285.326C187.349 285.351 187.286 285.371 187.222 285.387Z" fill="#1E1A4D"/>
<path d="M220.185 284.643C220.041 284.877 219.938 285.017 219.816 285.198C219.693 285.379 219.571 285.527 219.446 285.687C219.198 286.01 218.93 286.31 218.655 286.608C218.107 287.198 217.518 287.751 216.893 288.262C215.627 289.298 214.206 290.134 212.683 290.741C211.149 291.334 209.486 291.709 207.839 291.597C206.2 291.504 204.619 290.983 203.364 290.061C204.935 289.917 206.33 289.756 207.63 289.339C208.267 289.156 208.891 288.93 209.497 288.662C210.1 288.412 210.682 288.112 211.236 287.766C212.357 287.076 213.404 286.273 214.358 285.37C214.853 284.93 215.312 284.448 215.776 283.973L216.446 283.242L217.056 282.55L217.149 282.445C217.462 282.09 217.898 281.864 218.369 281.811C218.841 281.758 219.315 281.882 219.696 282.158C220.078 282.434 220.34 282.843 220.431 283.303C220.522 283.763 220.435 284.241 220.187 284.643L220.185 284.643Z" fill="#1E1A4D"/>
<path d="M220.617 146.004C220.489 146.047 220.355 146.065 220.221 146.056C220.087 146.048 219.956 146.013 219.836 145.955C219.716 145.896 219.609 145.815 219.521 145.715C219.433 145.615 219.366 145.499 219.323 145.374L209.991 117.809C209.906 117.556 209.925 117.278 210.046 117.037C210.167 116.797 210.38 116.613 210.637 116.526C213.334 115.618 216.279 115.805 218.823 117.045C221.368 118.285 223.304 120.478 224.206 123.14L227.388 132.54C228.289 135.203 228.082 138.117 226.812 140.642C225.542 143.167 223.314 145.096 220.617 146.004Z" fill="white"/>
<path d="M220.606 146.217C220.305 146.297 219.985 146.261 219.711 146.117C219.437 145.972 219.23 145.73 219.13 145.439L209.799 117.874C209.696 117.57 209.72 117.237 209.865 116.949C210.01 116.66 210.264 116.44 210.572 116.335C213.321 115.413 216.32 115.605 218.912 116.869C221.505 118.132 223.478 120.365 224.398 123.077L227.58 132.476C228.035 133.82 228.218 135.24 228.117 136.657C228.017 138.074 227.635 139.459 226.994 140.733C226.353 142.007 225.466 143.145 224.382 144.083C223.299 145.02 222.041 145.738 220.679 146.196L220.606 146.217ZM211.361 116.523C211.14 116.582 210.921 116.647 210.702 116.721C210.497 116.791 210.327 116.938 210.23 117.131C210.133 117.323 210.117 117.546 210.186 117.749L219.517 145.309C219.55 145.409 219.604 145.503 219.674 145.583C219.745 145.663 219.83 145.728 219.927 145.775C220.023 145.822 220.128 145.85 220.235 145.857C220.342 145.863 220.45 145.849 220.552 145.815C223.198 144.923 225.385 143.031 226.63 140.554C227.876 138.076 228.079 135.217 227.195 132.605L224.013 123.205C223.166 120.704 221.387 118.622 219.037 117.38C216.687 116.138 213.942 115.83 211.359 116.518L211.361 116.523Z" fill="#371A45"/>
<g opacity="0.35">
<path d="M225.896 128.133L227.39 132.546C228.29 135.209 228.083 138.123 226.813 140.648C225.543 143.173 223.314 145.102 220.617 146.011C220.36 146.098 220.079 146.08 219.836 145.961C219.593 145.842 219.409 145.633 219.323 145.379L216.842 138.055C216.975 138.198 217.147 138.3 217.338 138.348C217.528 138.396 217.729 138.389 217.916 138.327L218.582 138.1C220.691 137.389 222.529 136.047 223.84 134.261C225.15 132.475 225.869 130.333 225.896 128.133Z" fill="#1E1A4D"/>
</g>
<path d="M221.037 147.833C220.32 148.023 219.559 147.938 218.907 147.594C218.256 147.249 217.762 146.672 217.526 145.979L208.194 118.415C207.95 117.69 208.007 116.898 208.352 116.211C208.698 115.524 209.304 115 210.037 114.752C211.608 114.223 213.268 114.004 214.921 114.109C216.574 114.213 218.187 114.639 219.67 115.362C221.153 116.085 222.475 117.09 223.562 118.321C224.648 119.552 225.477 120.984 226.002 122.536L229.185 131.935C229.71 133.486 229.921 135.127 229.804 136.763C229.688 138.399 229.247 139.998 228.507 141.47C227.767 142.941 226.743 144.255 225.491 145.338C224.24 146.421 222.787 147.25 221.216 147.779C221.158 147.799 221.097 147.817 221.037 147.833ZM212.078 118.057L220.829 143.907C222.826 143.006 224.418 141.407 225.298 139.418C226.177 137.429 226.281 135.192 225.589 133.142L222.407 123.742C221.712 121.691 220.271 119.974 218.362 118.924C216.453 117.873 214.213 117.564 212.078 118.057Z" fill="#1E1A4D"/>
<path d="M118.474 147.565C118.601 147.522 118.735 147.504 118.869 147.513C119.003 147.521 119.134 147.556 119.254 147.614C119.374 147.673 119.481 147.754 119.569 147.854C119.657 147.954 119.724 148.07 119.767 148.195L129.099 175.76C129.141 175.885 129.158 176.018 129.149 176.151C129.14 176.283 129.104 176.413 129.044 176.532C128.984 176.651 128.901 176.757 128.8 176.845C128.698 176.933 128.581 177 128.453 177.043C125.756 177.951 122.811 177.765 120.267 176.524C117.722 175.284 115.786 173.091 114.884 170.429L111.702 161.03C110.801 158.367 111.008 155.453 112.278 152.927C113.548 150.402 115.776 148.473 118.474 147.565Z" fill="white"/>
<path d="M127.835 177.44C125.152 178.154 122.301 177.834 119.86 176.544C117.42 175.254 115.572 173.091 114.692 170.494L111.51 161.094C111.055 159.75 110.873 158.33 110.973 156.913C111.074 155.496 111.456 154.111 112.096 152.837C112.737 151.563 113.625 150.425 114.708 149.488C115.792 148.551 117.05 147.832 118.411 147.375C118.719 147.272 119.055 147.293 119.346 147.435C119.636 147.576 119.858 147.826 119.962 148.13L129.293 175.694C129.396 175.999 129.372 176.331 129.227 176.62C129.082 176.908 128.828 177.129 128.52 177.233C128.291 177.309 128.063 177.379 127.835 177.44ZM118.533 147.757C117.223 148.198 116.012 148.89 114.969 149.792C113.926 150.695 113.072 151.791 112.455 153.017C111.839 154.244 111.471 155.577 111.375 156.941C111.278 158.305 111.453 159.672 111.891 160.966L115.074 170.365C115.511 171.658 116.203 172.852 117.109 173.879C118.015 174.905 119.117 175.743 120.353 176.346C121.59 176.948 122.935 177.303 124.313 177.391C125.691 177.478 127.075 177.296 128.385 176.854C128.487 176.82 128.581 176.766 128.663 176.696C128.744 176.625 128.81 176.54 128.858 176.445C128.906 176.349 128.935 176.245 128.942 176.139C128.95 176.033 128.936 175.926 128.902 175.826L119.57 148.261C119.536 148.161 119.482 148.067 119.412 147.987C119.341 147.907 119.255 147.842 119.159 147.795C119.063 147.748 118.958 147.721 118.85 147.714C118.743 147.708 118.635 147.722 118.533 147.757Z" fill="#371A45"/>
<g opacity="0.35">
<path d="M126.512 168.112L129.1 175.759C129.185 176.014 129.165 176.292 129.044 176.532C128.923 176.773 128.71 176.957 128.453 177.044C127.117 177.494 125.707 177.68 124.303 177.591C122.898 177.502 121.527 177.141 120.267 176.526C119.007 175.912 117.883 175.058 116.96 174.012C116.037 172.966 115.332 171.749 114.886 170.431L113.546 166.47C114.948 167.956 116.755 169.008 118.752 169.5C120.749 169.992 122.851 169.904 124.806 169.246L125.824 168.903C125.999 168.843 126.156 168.739 126.276 168.6C126.397 168.461 126.478 168.292 126.512 168.112Z" fill="#1E1A4D"/>
</g>
<path d="M128.274 179.053C125.176 179.877 121.883 179.508 119.064 178.02C116.244 176.532 114.108 174.036 113.089 171.037L109.906 161.637C108.846 158.504 109.089 155.075 110.583 152.104C112.078 149.132 114.7 146.863 117.874 145.794C118.607 145.547 119.408 145.598 120.1 145.935C120.792 146.273 121.319 146.869 121.564 147.593L130.896 175.157C131.142 175.882 131.085 176.675 130.74 177.362C130.394 178.049 129.788 178.573 129.054 178.821C128.797 178.905 128.537 178.983 128.274 179.053ZM118.26 149.658C116.263 150.559 114.671 152.159 113.791 154.148C112.912 156.137 112.808 158.373 113.5 160.424L116.682 169.823C117.376 171.874 118.818 173.591 120.727 174.642C122.636 175.693 124.876 176.001 127.011 175.508L118.26 149.658Z" fill="#1E1A4D"/>
<path d="M212.92 171.463C226.848 147.682 218.722 117.355 194.77 103.724C170.818 90.0935 140.11 98.3216 126.182 122.102C112.254 145.883 120.38 176.21 144.332 189.841C168.285 203.472 198.992 195.244 212.92 171.463Z" fill="white"/>
<path d="M182.442 194.874L182.089 194.969C155.187 201.972 127.679 186.057 120.765 159.488C113.885 133.037 129.972 105.844 156.66 98.6937L157.013 98.5991C170.046 95.2093 183.6 97.027 195.184 103.733C206.768 110.44 214.989 121.213 218.338 134.084C225.219 160.53 209.13 187.723 182.442 194.874ZM156.757 99.0782C143.986 102.5 133.268 110.595 126.537 121.894C119.742 133.302 117.835 146.614 121.159 159.385C124.482 172.156 132.638 182.844 144.126 189.486C155.614 196.128 169.061 197.941 181.991 194.573C194.921 191.206 205.775 183.072 212.567 171.664C219.358 160.257 221.269 146.944 217.945 134.173C214.622 121.403 206.466 110.714 194.979 104.072C183.492 97.4297 170.04 95.6215 157.113 98.983L156.757 99.0782Z" fill="#371A45"/>
<g opacity="0.35">
<path d="M215.946 127.609C216.83 129.729 217.564 131.908 218.141 134.131C225.036 160.635 208.874 187.785 182.037 194.775C155.2 201.765 127.859 185.941 120.96 159.436C120.76 158.671 120.581 157.906 120.422 157.146C129.771 179.655 154.751 192.355 179.305 185.962C205.363 179.175 221.359 153.371 215.946 127.609Z" fill="#1E1A4D"/>
</g>
<path d="M182.88 196.488L182.51 196.587C169.041 200.093 155.032 198.214 143.059 191.283C131.086 184.352 122.587 173.214 119.127 159.913C115.666 146.613 117.652 132.739 124.733 120.851C131.814 108.963 143.13 100.477 156.591 96.9801C170.053 93.4837 184.071 95.3523 196.043 102.283C208.015 109.215 216.513 120.346 219.975 133.654C223.438 146.962 221.45 160.828 214.369 172.716C207.358 184.492 196.187 192.922 182.88 196.488ZM157.192 100.697C144.854 104.003 134.496 111.819 127.994 122.739C121.434 133.76 119.592 146.623 122.794 158.958C125.995 171.293 133.884 181.622 144.984 188.044C156.083 194.467 169.075 196.213 181.559 192.962C194.06 189.691 204.538 181.85 211.1 170.829C217.661 159.807 219.507 146.945 216.299 134.614C213.09 122.284 205.208 111.95 194.108 105.527C183.009 99.1047 170.017 97.3595 157.533 100.61L157.192 100.697Z" fill="#1E1A4D"/>
<path d="M218.306 135.404C220.893 144.756 220.22 154.288 216.95 162.926C214.498 169.401 200.902 183.305 180.943 189.013C162.437 194.305 142.856 189.202 137.423 184.902C130.184 179.17 124.703 171.339 122.116 161.986C115.27 137.236 133.962 121.021 160.527 113.683C187.091 106.346 211.46 110.654 218.306 135.404Z" fill="#1E1A4D"/>
<path d="M180.335 190.341C161.506 195.386 142.303 190.202 136.715 185.78C129.018 179.692 123.592 171.569 121.026 162.29C117.685 150.208 120.011 139.538 127.946 130.576C134.878 122.744 146.042 116.531 160.229 112.606C174.416 108.681 187.187 108.282 197.16 111.442C208.573 115.058 216.053 123.016 219.395 135.099C221.962 144.377 221.481 154.132 218.007 163.308C215.599 169.668 202.345 184.051 181.25 190.083C180.946 190.175 180.645 190.258 180.335 190.341ZM161.541 114.571C161.297 114.636 161.058 114.701 160.825 114.763C146.692 118.668 114.736 131.061 123.208 161.686C125.649 170.509 130.81 178.234 138.134 184.029C143.257 188.084 161.921 192.959 179.776 188.176C180.066 188.098 180.349 188.022 180.637 187.937C200.706 182.198 213.695 168.341 215.892 162.538C219.199 153.805 219.657 144.528 217.216 135.704C208.884 105.586 176.067 110.677 161.541 114.569L161.541 114.571Z" fill="#1E1A4D"/>
<g opacity="0.7">
<path d="M208.132 135.76C207.703 130.93 204.487 127.282 200.947 127.611C197.408 127.94 194.886 132.121 195.314 136.951C195.743 141.78 198.959 145.429 202.499 145.1C206.038 144.771 208.56 140.589 208.132 135.76Z" fill="white"/>
</g>
<g opacity="0.7">
<path d="M202.281 155.379C202.396 153.155 200.926 151.282 198.997 151.196C197.068 151.11 195.411 152.843 195.296 155.068C195.181 157.292 196.651 159.165 198.579 159.251C200.508 159.337 202.165 157.604 202.281 155.379Z" fill="white"/>
</g>
<g opacity="0.35">
<path d="M202.564 114.9C209.977 118.816 215.557 125.461 218.305 135.402C220.892 144.757 220.218 154.289 216.951 162.925C214.498 169.401 200.901 183.305 180.942 189.014C173.896 191.032 166.695 191.538 160.174 191.155C184.56 183.621 201.098 166.596 204.137 158.565C208.289 147.603 209.142 135.503 205.857 123.636C205.037 120.627 203.935 117.703 202.564 114.9Z" fill="#111A28"/>
</g>
<path d="M121.646 140.607L118.17 139.136L119.81 139.841L118.117 139.278C123.258 124.406 137.94 112.633 158.385 106.981C178.708 101.373 197.243 103.695 209.324 113.354C209.694 113.635 209.946 114.042 210.029 114.498C210.112 114.953 210.022 115.424 209.776 115.819C209.53 116.215 209.145 116.507 208.695 116.639C208.246 116.772 207.764 116.735 207.342 116.536C207.206 116.472 207.078 116.392 206.96 116.299C195.841 107.389 178.493 105.301 159.381 110.593C140.161 115.905 126.427 126.797 121.699 140.472C121.683 140.518 121.665 140.563 121.646 140.607Z" fill="#1E1A4D"/>
<g opacity="0.7">
<path d="M136.99 173.727C136.99 173.727 122.475 151.457 133.108 138.045C143.74 124.633 162.921 119.374 162.808 120.712C162.808 120.712 142.991 131.655 139.269 150.515C136.401 165.06 136.99 173.727 136.99 173.727Z" fill="white"/>
</g>
<path d="M218.963 208.782L222.955 218.432L226.062 225.937C226.469 226.92 226.484 228.022 226.103 229.02C225.722 230.018 224.973 230.838 224.008 231.316C222.72 231.956 221.113 232.731 219.254 233.585C212.638 236.624 202.793 240.677 192.502 243.268C191.436 243.534 190.31 243.383 189.359 242.846C188.408 242.309 187.706 241.428 187.399 240.388L181.336 219.879C181.174 219.332 181.127 218.757 181.196 218.19C181.266 217.623 181.452 217.074 181.742 216.579C182.032 216.083 182.421 215.651 182.884 215.307C183.348 214.964 183.876 214.717 184.438 214.582C191.607 212.854 205.861 209.284 213.575 206.447C214.609 206.068 215.747 206.1 216.752 206.536C217.757 206.971 218.55 207.777 218.963 208.782Z" fill="white"/>
<path d="M184.121 214.672L176.043 217.774C175.189 218.103 174.49 218.737 174.086 219.55C173.681 220.364 173.602 221.296 173.862 222.161L179.984 242.479C180.242 243.334 180.815 244.062 181.589 244.518C182.364 244.975 183.285 245.128 184.171 244.946L191.98 243.366" fill="white"/>
<g opacity="0.25">
<path d="M184.121 214.672L176.043 217.774C175.189 218.103 174.49 218.737 174.086 219.55C173.681 220.364 173.602 221.296 173.862 222.161L179.984 242.479C180.242 243.334 180.815 244.062 181.589 244.518C182.364 244.975 183.285 245.128 184.171 244.946L191.98 243.366" fill="#371A45"/>
</g>
<path d="M194.619 244.428C194.048 244.581 193.476 244.73 192.901 244.875C191.416 245.252 189.844 245.044 188.517 244.296C187.191 243.547 186.213 242.316 185.791 240.863L179.728 220.352C179.502 219.59 179.436 218.79 179.533 217.999C179.631 217.209 179.889 216.446 180.293 215.756C180.698 215.066 181.239 214.463 181.885 213.985C182.53 213.507 183.267 213.163 184.049 212.975C191.624 211.15 205.456 207.67 212.994 204.896C214.434 204.364 216.024 204.405 217.426 205.012C218.829 205.619 219.934 206.743 220.508 208.147L227.606 225.303C228.168 226.672 228.185 228.204 227.655 229.593C227.126 230.982 226.088 232.125 224.748 232.795C218.801 235.744 207.185 241.061 194.619 244.428ZM184.756 216.207C184.423 216.296 184.111 216.451 183.838 216.661C183.566 216.872 183.338 217.133 183.169 217.432C183 217.73 182.892 218.058 182.853 218.397C182.814 218.736 182.843 219.079 182.94 219.405L189.002 239.916C189.186 240.549 189.611 241.085 190.188 241.411C190.765 241.738 191.449 241.83 192.096 241.667C205.001 238.414 217.168 232.861 223.268 229.837C223.852 229.545 224.304 229.047 224.535 228.441C224.766 227.836 224.758 227.168 224.512 226.571L217.415 209.416C217.166 208.805 216.686 208.314 216.075 208.049C215.465 207.784 214.773 207.765 214.146 207.997C206.443 210.83 192.468 214.346 184.822 216.19L184.757 216.208L184.756 216.207Z" fill="#1E1A4D"/>
<path d="M192.404 244.962C192.369 244.971 192.335 244.98 192.301 244.99L184.492 246.57C183.197 246.838 181.851 246.616 180.719 245.948C179.587 245.28 178.753 244.214 178.382 242.961L172.259 222.644C171.883 221.38 172.003 220.02 172.593 218.832C173.183 217.645 174.202 216.718 175.446 216.234L183.524 213.131C183.73 213.052 183.948 213.014 184.168 213.018C184.387 213.023 184.604 213.071 184.804 213.158C185.005 213.246 185.186 213.371 185.337 213.528C185.487 213.685 185.606 213.87 185.684 214.073C185.762 214.275 185.799 214.491 185.793 214.709C185.787 214.926 185.738 215.14 185.648 215.339C185.558 215.538 185.43 215.718 185.271 215.868C185.111 216.018 184.923 216.136 184.718 216.215L176.641 219.318C176.182 219.496 175.807 219.838 175.589 220.275C175.372 220.713 175.328 221.215 175.466 221.681L181.588 241.998C181.725 242.459 182.033 242.852 182.45 243.098C182.867 243.345 183.363 243.427 183.84 243.328L191.649 241.748C192.073 241.664 192.513 241.747 192.876 241.978C193.239 242.208 193.496 242.57 193.595 242.986C193.693 243.402 193.624 243.841 193.402 244.21C193.181 244.579 192.824 244.85 192.407 244.965L192.404 244.962Z" fill="#1E1A4D"/>
<path d="M209.747 239.563C209.334 239.674 208.896 239.624 208.521 239.425C208.146 239.225 207.864 238.892 207.731 238.492L204.309 228.193L197.986 226.057C197.746 225.975 197.528 225.841 197.349 225.663C197.169 225.486 197.034 225.27 196.952 225.032L192.697 212.665C192.555 212.25 192.585 211.795 192.781 211.4C192.977 211.006 193.323 210.703 193.744 210.559C194.164 210.416 194.623 210.443 195.021 210.634C195.419 210.826 195.723 211.167 195.865 211.581L199.857 223.185L206.19 225.325C206.433 225.407 206.653 225.544 206.834 225.724C207.014 225.905 207.15 226.124 207.23 226.366L210.91 237.44C210.978 237.646 211.005 237.864 210.988 238.081C210.972 238.297 210.912 238.509 210.813 238.704C210.714 238.898 210.577 239.072 210.41 239.214C210.244 239.357 210.051 239.466 209.842 239.535C209.811 239.545 209.779 239.555 209.747 239.563Z" fill="#371A45"/>
<path d="M220.314 218.658C220.55 219.273 221.582 224.579 221.582 224.579L218.028 225.934C215.581 226.866 212.635 225.126 211.449 222.037C210.262 218.947 211.287 215.693 213.735 214.76L217.291 213.405C217.291 213.405 219.925 217.656 220.314 218.658Z" fill="#22A7F0"/>
<path d="M220.313 218.658C220.55 219.273 221.588 224.578 221.588 224.578L221.47 224.622C221.164 223.093 220.783 221.282 220.646 220.94C220.263 219.935 217.625 215.687 217.625 215.687L214.071 217.042C212.36 217.692 211.343 219.483 211.289 221.555C210.375 218.619 211.418 215.643 213.74 214.76L217.296 213.404C217.296 213.404 219.925 217.656 220.313 218.658Z" fill="white"/>
<path d="M218.025 227.41C214.963 228.23 211.505 226.147 210.12 222.543C208.658 218.736 210.055 214.659 213.231 213.449L215.713 212.503C216.326 212.268 217.002 212.253 217.622 212.462C218.242 212.67 218.767 213.088 219.104 213.643C221.289 217.23 221.555 217.922 221.642 218.149C221.713 218.335 221.876 218.76 222.754 223.172C222.883 223.812 222.778 224.479 222.457 225.053C222.136 225.626 221.62 226.07 221.001 226.304L218.532 227.245C218.366 227.309 218.197 227.364 218.025 227.41ZM216.686 215.136L214.24 216.069C212.558 216.71 211.889 219.209 212.778 221.527C213.668 223.845 215.844 225.254 217.525 224.62L219.959 223.691C219.378 220.749 219.068 219.41 218.982 219.152C218.845 218.812 218.175 217.582 216.686 215.136Z" fill="#1E1A4D"/>
<path d="M221.585 224.569C224.033 223.636 225.057 220.378 223.871 217.293C222.686 214.207 219.741 212.462 217.293 213.395C214.845 214.328 213.822 217.586 215.007 220.672C216.192 223.757 219.138 225.502 221.585 224.569Z" fill="#B8E6FE"/>
<path d="M223.869 217.308C224.009 217.673 224.12 218.049 224.201 218.431C222.812 216.027 220.286 214.783 218.135 215.601C215.985 216.418 214.931 219.039 215.516 221.756C215.317 221.413 215.146 221.055 215.004 220.685C213.819 217.6 214.845 214.342 217.294 213.414C219.744 212.486 222.682 214.218 223.869 217.308Z" fill="white"/>
<path d="M221.565 226.06C220.105 226.451 218.534 226.204 217.083 225.345C215.571 224.448 214.36 222.972 213.675 221.188C212.99 219.405 212.903 217.503 213.428 215.827C213.992 214.029 215.184 212.705 216.783 212.095C218.383 211.485 220.161 211.678 221.785 212.641C223.298 213.537 224.509 215.013 225.193 216.798C225.879 218.582 225.966 220.483 225.441 222.16C224.877 223.957 223.685 225.282 222.085 225.892C221.915 225.957 221.741 226.013 221.565 226.06ZM218.023 214.643C217.945 214.663 217.869 214.688 217.795 214.717C217.028 215.008 216.441 215.694 216.142 216.646C215.808 217.721 215.87 218.972 216.334 220.179C216.797 221.386 217.585 222.358 218.556 222.934C219.419 223.444 220.315 223.565 221.079 223.271C221.844 222.977 222.433 222.294 222.732 221.342C223.066 220.269 223.002 219.017 222.54 217.809C222.078 216.609 221.289 215.63 220.317 215.055C219.54 214.594 218.736 214.451 218.023 214.643Z" fill="#1E1A4D"/>
<path d="M140.932 233.98C140.932 233.98 153.175 235.938 178.952 228.086C178.952 228.086 184.925 231.319 181.158 236.321C177.392 241.324 151.147 250.654 141.937 244.939C136.106 241.32 140.932 233.98 140.932 233.98Z" fill="white"/>
<g opacity="0.25">
<path d="M181.158 236.324C177.393 241.327 151.148 250.652 141.935 244.938C139.164 243.222 138.8 240.657 139.188 238.441C139.571 238.828 140 239.167 140.465 239.452C149.678 245.166 175.922 235.836 179.688 230.837C180.049 230.367 180.347 229.852 180.573 229.306C182.011 230.68 183.55 233.143 181.158 236.324Z" fill="#1E1A4D"/>
</g>
<path d="M163.61 246.358C157.536 247.986 146.939 250.006 141.042 246.344C139.175 245.182 138.002 243.591 137.568 241.613C136.666 237.507 139.414 233.263 139.534 233.083L140.132 232.173L141.208 232.346C141.393 232.373 153.563 234.094 178.47 226.504L179.146 226.299L179.763 226.633C180.118 226.826 183.25 228.602 183.949 231.806C184.224 233.072 184.197 235.054 182.502 237.304C179.979 240.658 171.157 244.29 164.032 246.247L163.61 246.358ZM141.85 235.744C141.268 236.902 140.422 239.02 140.84 240.901C141.082 241.993 141.734 242.855 142.833 243.537C151.268 248.772 176.639 239.561 179.819 235.339C180.583 234.322 180.864 233.401 180.673 232.522C180.426 231.384 179.403 230.42 178.687 229.893C157.493 236.262 145.506 236.036 141.85 235.743L141.85 235.744Z" fill="#1E1A4D"/>
<g opacity="0.25">
<path d="M244.728 246.82C242.064 252.542 230.715 260.416 222.834 258.043C216.252 256.065 214.732 251.11 209.959 249.306C209.681 249.201 208.894 249.086 207.693 248.909C219.31 241.564 230.381 236.474 240.64 233.014C246.604 237.282 246.932 242.08 244.728 246.82Z" fill="#1E1A4D"/>
</g>
<path d="M174.317 202.318C193.156 215.976 219.391 220.414 236.683 229.112C246.161 233.88 245.835 237.483 243.241 243.066C240.581 248.788 232.598 255.761 224.718 253.388C218.135 251.407 216.893 248.181 212.121 246.375C210.238 245.662 183.062 245.811 163.151 227.89" fill="white"/>
<g opacity="0.25">
<path d="M243.241 243.069C240.582 248.789 232.599 255.761 224.718 253.389C218.136 251.41 216.894 248.185 212.119 246.376C210.239 245.663 183.062 245.814 163.151 227.89L163.345 227.45C183.441 239.561 200.091 236.147 213.192 241.504C217.913 243.434 218.519 244.332 225.102 246.31C232.982 248.683 240.965 241.71 243.624 235.991C243.797 235.624 243.956 235.266 244.103 234.917C245.452 237.381 244.711 239.907 243.241 243.069Z" fill="#1E1A4D"/>
</g>
<path d="M174.693 201.815C178.261 203.106 181.381 204.824 184.646 206.395C187.87 208.009 191.151 209.546 194.454 211.064C197.793 212.525 201.196 213.838 204.652 215.065C208.097 216.314 211.584 217.491 215.071 218.686C218.558 219.881 222.068 221.067 225.555 222.372C226.429 222.685 227.3 223.018 228.167 223.363C229.034 223.708 229.903 224.037 230.771 224.39C232.493 225.129 234.227 225.833 235.92 226.67C237.672 227.463 239.367 228.373 240.995 229.392C241.408 229.674 241.821 229.945 242.23 230.238C242.628 230.561 243.038 230.863 243.43 231.208L244.008 231.758L244.295 232.036C244.387 232.135 244.476 232.246 244.566 232.35L245.098 232.99C245.263 233.219 245.416 233.473 245.573 233.716C246.169 234.704 246.624 235.913 246.674 237.121C246.733 238.251 246.597 239.384 246.271 240.472C245.983 241.436 245.628 242.379 245.207 243.295C245.023 243.729 244.787 244.19 244.547 244.651C244.306 245.111 244.035 245.535 243.772 245.972C242.683 247.659 241.375 249.199 239.883 250.553C238.391 251.926 236.712 253.086 234.896 253.999C233.057 254.91 231.013 255.551 228.868 255.693L228.061 255.723C227.793 255.742 227.523 255.737 227.255 255.708C226.72 255.647 226.174 255.637 225.65 255.524C225.126 255.41 224.587 255.29 224.08 255.155C223.608 254.996 223.133 254.857 222.665 254.677C221.719 254.329 220.798 253.919 219.909 253.448C219.029 252.975 218.181 252.448 217.368 251.871C215.77 250.739 214.434 249.604 213.022 248.856C212.848 248.75 212.662 248.673 212.485 248.583C212.307 248.49 212.124 248.407 211.938 248.333L211.659 248.218L211.52 248.16L211.451 248.13C211.419 248.116 211.453 248.135 211.451 248.13C211.463 248.138 211.476 248.141 211.489 248.142L211.381 248.125C211.295 248.113 211.229 248.098 211.115 248.085C210.281 247.981 209.332 247.895 208.413 247.799C206.558 247.607 204.689 247.384 202.83 247.109C195.392 246.012 188.025 244.139 181.054 241.216C179.307 240.499 177.598 239.684 175.907 238.844C174.232 237.968 172.526 237.139 170.899 236.163C170.077 235.689 169.283 235.168 168.522 234.603C168.137 234.329 167.752 234.051 167.391 233.742C167.03 233.432 166.659 233.139 166.304 232.824C165.597 232.186 164.937 231.498 164.33 230.766C163.719 230.013 163.183 229.203 162.729 228.347C162.668 228.229 162.644 228.096 162.661 227.965C162.677 227.833 162.733 227.709 162.82 227.609C162.908 227.508 163.024 227.436 163.153 227.401C163.283 227.366 163.419 227.369 163.546 227.411L163.582 227.423C164.524 227.739 165.338 228.17 166.164 228.585C166.989 229 167.755 229.466 168.535 229.914C168.921 230.141 169.299 230.379 169.673 230.621C170.047 230.863 170.435 231.086 170.809 231.328C171.183 231.57 171.558 231.803 171.936 232.051C172.313 232.299 172.691 232.523 173.063 232.773C174.548 233.764 176.085 234.679 177.667 235.513C179.267 236.318 180.888 237.085 182.552 237.768C189.182 240.549 196.24 242.35 203.415 243.407C205.212 243.673 207.014 243.888 208.835 244.077C209.754 244.174 210.645 244.253 211.647 244.377C211.762 244.389 211.923 244.416 212.065 244.439C212.145 244.453 212.195 244.458 212.299 244.478C212.424 244.507 212.549 244.541 212.672 244.577C212.725 244.594 212.815 244.62 212.835 244.63L212.926 244.667L213.106 244.742L213.466 244.891C213.945 245.093 214.412 245.318 214.868 245.567C216.711 246.56 218.182 247.832 219.586 248.814C220.947 249.792 222.437 250.583 224.015 251.164C224.407 251.316 224.821 251.433 225.221 251.571L226.346 251.834C226.721 251.917 227.109 251.91 227.489 251.96C227.68 251.985 227.874 251.988 228.067 251.97L228.647 251.948C230.197 251.84 231.758 251.373 233.228 250.644C236.165 249.176 238.784 246.758 240.582 243.978C240.791 243.625 241.034 243.282 241.202 242.92C241.37 242.557 241.574 242.206 241.748 241.797C242.096 241.044 242.392 240.268 242.632 239.474C242.84 238.803 242.933 238.102 242.906 237.402C242.888 236.772 242.661 236.219 242.332 235.646C241.64 234.509 240.36 233.437 238.927 232.529C237.435 231.599 235.881 230.768 234.276 230.044C232.667 229.246 230.983 228.564 229.32 227.85C228.48 227.506 227.627 227.183 226.781 226.849C225.935 226.514 225.085 226.187 224.223 225.878C220.804 224.597 217.315 223.428 213.834 222.225C210.352 221.023 206.842 219.848 203.352 218.582C199.856 217.345 196.396 215.97 192.916 214.618C189.464 213.197 186.004 211.736 182.77 209.812C179.485 208.002 176.428 205.709 173.957 202.814C173.865 202.707 173.812 202.571 173.806 202.43C173.8 202.288 173.841 202.149 173.923 202.033C174.006 201.916 174.124 201.83 174.261 201.787C174.398 201.744 174.544 201.746 174.679 201.794L174.693 201.815Z" fill="#1E1A4D"/>
<path d="M186.309 242.673C186.064 242.738 185.808 242.747 185.559 242.7C185.311 242.653 185.077 242.551 184.875 242.401C184.672 242.252 184.507 242.058 184.392 241.836C184.276 241.614 184.213 241.368 184.207 241.118C184.188 240.168 183.923 217.92 198.61 213.985L198.849 213.921C199.28 213.813 199.735 213.878 200.115 214.102C200.495 214.326 200.768 214.691 200.875 215.116C200.982 215.541 200.913 215.992 200.685 216.369C200.456 216.747 200.085 217.019 199.655 217.128L199.472 217.177C187.286 220.442 187.546 240.826 187.55 241.032C187.557 241.403 187.439 241.765 187.214 242.063C186.989 242.36 186.671 242.575 186.309 242.673Z" fill="#1E1A4D"/>
<path d="M237.349 193.622C237.073 193.696 236.781 193.699 236.504 193.63C227.138 191.291 220.71 169.682 220.007 167.223C219.886 166.801 219.94 166.349 220.156 165.964C220.373 165.58 220.734 165.295 221.161 165.173L221.189 165.165C221.613 165.052 222.064 165.107 222.445 165.32C222.826 165.533 223.106 165.886 223.225 166.302C224.991 172.47 230.967 188.826 237.341 190.416C237.699 190.506 238.016 190.71 238.243 190.998C238.469 191.286 238.593 191.641 238.594 192.006C238.594 192.372 238.473 192.729 238.247 193.021C238.022 193.312 237.706 193.523 237.348 193.618L237.349 193.622Z" fill="#1E1A4D"/>
<path d="M239.79 149.181C239.832 149.272 239.891 149.461 239.943 149.61L240.105 150.091C240.221 150.413 240.322 150.743 240.445 151.067C240.669 151.724 240.933 152.37 241.211 153.019C241.488 153.667 241.809 154.303 242.131 154.97C242.43 155.663 242.803 156.317 243.122 157.152C242.267 156.999 241.459 156.659 240.757 156.156C240.409 155.913 240.081 155.641 239.777 155.344C239.481 155.042 239.201 154.725 238.939 154.393C238.41 153.73 237.961 153.009 237.6 152.243C237.422 151.857 237.267 151.461 237.136 151.057C237.072 150.853 237.009 150.649 236.964 150.436C236.909 150.208 236.867 149.978 236.839 149.745C236.793 149.394 236.877 149.038 237.075 148.741C237.273 148.444 237.571 148.227 237.916 148.13C238.261 148.032 238.629 148.06 238.953 148.208C239.278 148.357 239.536 148.617 239.682 148.939L239.79 149.181Z" fill="#1E1A4D"/>
</svg>
